<svg xmlns="http://www.w3.org/2000/svg" width="23.362" height="31.304" viewBox="0 0 23.362 31.304"><g transform="translate(-22.426 -16.451)"><path d="M45.788,31.982a.626.626,0,0,0-.665-.578H23.091a.626.626,0,0,0-.665.578c0,4.038,2.732,7.523,6.667,9.158l-1.876,8.147a.586.586,0,0,0,.521.68.721.721,0,0,0,.131.012.649.649,0,0,0,.651-.465l.923-4.009h9.321l.9,3.918a.649.649,0,0,0,.651.465.722.722,0,0,0,.131-.012.586.586,0,0,0,.521-.68l-1.855-8.053C43.054,39.507,45.788,36.021,45.788,31.982ZM38.5,44.348H29.71l.636-2.762a13.134,13.134,0,0,0,7.517,0Zm-4.392-3.367c-5.484,0-9.987-3.727-10.33-8.421h20.66C44.093,37.253,39.591,40.981,34.107,40.981Z" transform="translate(0 -2.222)" fill="#fac25a"/><path d="M45.633,26.4a.851.851,0,0,0,1.329-1.064c-1.247-1.556-.779-2.249,0-3.4.8-1.189,1.9-2.816-.2-5.185a.851.851,0,0,0-1.273,1.131c1.227,1.38.814,1.991.065,3.1C44.726,22.2,43.6,23.86,45.633,26.4Z" transform="translate(-7.941 -0.002)" fill="#fac25a"/><path d="M39.1,26.383a.851.851,0,0,0,1.328-1.064c-1.247-1.556-.779-2.249,0-3.4.8-1.189,1.9-2.816-.2-5.185a.852.852,0,0,0-1.274,1.131c1.227,1.38.814,1.991.065,3.1C38.2,22.184,37.074,23.849,39.1,26.383Z" transform="translate(-5.591 0)" fill="#fac25a"/><path d="M32.71,26.4a.851.851,0,0,0,1.329-1.064c-1.247-1.556-.779-2.249,0-3.4.8-1.189,1.9-2.816-.2-5.185a.851.851,0,0,0-1.273,1.131c1.227,1.38.814,1.991.065,3.1C31.8,22.2,30.679,23.86,32.71,26.4Z" transform="translate(-3.289 -0.002)" fill="#fac25a"/></g></svg>