<svg xmlns="http://www.w3.org/2000/svg" width="35.399" height="32.422" viewBox="0 0 35.399 32.422"><g transform="translate(-11.336 -11.881)"><path d="M11.979,21.9H26.262l-.167.282a3.9,3.9,0,0,0-.555,2V33.1a.59.59,0,0,0,1.179,0h0V30.745H33.2V33.1a.589.589,0,1,0,1.179,0h0V24.191a2.72,2.72,0,0,1,.387-1.4l.534-.889H46.167a.589.589,0,1,0,0-1.179h0v0H43.22v-6.81a2.065,2.065,0,0,0-2.085-2.034,2.1,2.1,0,0,0-1.8,1l-3.777,6.3V13.915a2.065,2.065,0,0,0-2.085-2.034,2.1,2.1,0,0,0-1.8,1l-4.7,7.84H11.98a.59.59,0,0,0,0,1.179ZM40.346,13.5a.921.921,0,0,1,.789-.434.885.885,0,0,1,.906.853l0,6.81H36.007Zm-7.663,0a.921.921,0,0,1,.789-.434.884.884,0,0,1,.9.853v6.81H28.344ZM26.716,24.191a2.72,2.72,0,0,1,.387-1.4l.534-.889h6.288l-.17.28a3.9,3.9,0,0,0-.555,2v1.25H26.716Zm0,2.427H33.2v2.949H26.716Z" transform="translate(-0.022)" fill="#fac25a"/><path d="M45.763,51.738l0,0a2.358,2.358,0,0,1-3.269,0,3.545,3.545,0,0,0-4.912,0,2.361,2.361,0,0,1-3.269,0,3.546,3.546,0,0,0-4.912,0,2.358,2.358,0,0,1-3.269,0,3.546,3.546,0,0,0-4.912,0,2.361,2.361,0,0,1-3.269,0,3.546,3.546,0,0,0-4.912,0l-1.46,1.421a.59.59,0,0,0,.823.844l1.461-1.419a2.357,2.357,0,0,1,3.269,0,3.548,3.548,0,0,0,4.912,0,2.358,2.358,0,0,1,3.269,0,3.547,3.547,0,0,0,4.912,0,2.357,2.357,0,0,1,3.268,0,3.549,3.549,0,0,0,4.913,0,2.357,2.357,0,0,1,3.268,0,3.547,3.547,0,0,0,4.912,0,.59.59,0,1,0-.82-.849Z" transform="translate(-0.031 -16.124)" fill="#fac25a"/><path d="M62.883,41.97l0,0a2.358,2.358,0,0,1-3.269,0,3.546,3.546,0,0,0-4.912,0,2.339,2.339,0,0,1-1.468.652.59.59,0,0,0-.548.629.6.6,0,0,0,.629.547,3.522,3.522,0,0,0,2.211-.984,2.357,2.357,0,0,1,3.268,0,3.547,3.547,0,0,0,4.912,0,.59.59,0,0,0,.014-.834h0A.59.59,0,0,0,62.883,41.97Z" transform="translate(-17.15 -12.073)" fill="#fac25a"/><path d="M32.571,40.982h0Z" transform="translate(-8.808 -12.071)" fill="#fac25a"/><path d="M12.309,44.3a.606.606,0,0,0,.059-.057l1.459-1.423a2.363,2.363,0,0,1,3.269,0,3.549,3.549,0,0,0,4.913,0,2.344,2.344,0,0,1,1.715-.655.59.59,0,0,0,.073-1.178h-.033a3.526,3.526,0,0,0-2.574.988,2.357,2.357,0,0,1-3.269,0,3.549,3.549,0,0,0-4.912,0l-1.464,1.426a.59.59,0,0,0,.764.9Z" transform="translate(0 -12.07)" fill="#fac25a"/><path d="M45.754,62.423l0,0a2.358,2.358,0,0,1-3.269,0,3.546,3.546,0,0,0-4.912,0,2.361,2.361,0,0,1-3.269,0,3.549,3.549,0,0,0-4.912,0,2.358,2.358,0,0,1-3.269,0,3.546,3.546,0,0,0-4.912,0,2.361,2.361,0,0,1-3.269,0,3.549,3.549,0,0,0-4.912,0l-1.46,1.421a.59.59,0,1,0,.822.845L13.85,63.27a2.361,2.361,0,0,1,3.269,0,3.548,3.548,0,0,0,4.913,0,2.358,2.358,0,0,1,3.268,0,3.546,3.546,0,0,0,4.912,0,2.358,2.358,0,0,1,3.268,0,3.548,3.548,0,0,0,4.913,0,2.358,2.358,0,0,1,3.268,0,3.547,3.547,0,0,0,4.912,0,.589.589,0,1,0-.819-.847Z" transform="translate(-0.022 -20.556)" fill="#fac25a"/></g></svg>