<svg xmlns="http://www.w3.org/2000/svg" width="29.137" height="29.277" viewBox="0 0 29.137 29.277"><path d="M37.426,29.074a12.821,12.821,0,1,0-24.657-.989,7.354,7.354,0,0,0,.741,2.368,7.6,7.6,0,0,0,.487.815,12.781,12.781,0,0,0,15.037,6.077,6.461,6.461,0,1,0,8.392-8.272Zm-2.472-10.6a11.712,11.712,0,0,1,1.708,3.814c-.927.716-3.309-.129-5.311-2.516-.03-.035-.057-.071-.085-.107A36.285,36.285,0,0,1,34.953,18.477Zm-5.263-4.26a11.826,11.826,0,0,1,4.576,3.353,37.373,37.373,0,0,0-3.654,1.213,7.9,7.9,0,0,1-1.143-2.537A2.415,2.415,0,0,1,29.691,14.218Zm-4.453-.877a11.728,11.728,0,0,1,3.423.509,3.642,3.642,0,0,0-.221,2.631,8.832,8.832,0,0,0,1.183,2.714,38.007,38.007,0,0,0-7.728,4.421,5.583,5.583,0,0,0-6.361-1.368,18.306,18.306,0,0,1-.428-3.111A11.77,11.77,0,0,1,25.238,13.34Zm-3.5,11.714a6.315,6.315,0,0,1,.582.92,5.23,5.23,0,0,1-.708,6.2,18.136,18.136,0,0,1-3.5-3.892A36.964,36.964,0,0,1,21.742,25.055Zm-4.194,2.311A18.116,18.116,0,0,1,15.806,23.3c.053-.031.1-.065.16-.093a3.746,3.746,0,0,1,1.706-.4,4.992,4.992,0,0,1,3.368,1.455A38.182,38.182,0,0,0,17.548,27.365Zm-3.323-6.4q.139.959.368,1.888a4.91,4.91,0,0,0-1.076,1.267A11.671,11.671,0,0,1,14.225,20.969Zm-.411,6.944a5.5,5.5,0,0,1,.09-1.938,4.331,4.331,0,0,1,1.012-1.968,19.181,19.181,0,0,0,1.87,4.152q-1.049,1.117-2.009,2.321A11.688,11.688,0,0,1,13.813,27.914Zm1.6,3.459q.935-1.193,1.961-2.3A19.169,19.169,0,0,0,20.7,32.787a4.053,4.053,0,0,1-3.342-.013A5.6,5.6,0,0,1,15.416,31.373Zm9.822,5.5a11.711,11.711,0,0,1-7.752-2.927A5.368,5.368,0,0,0,19.1,34.2a4.8,4.8,0,0,0,2.185-.52c.1-.053.2-.115.3-.175a19.174,19.174,0,0,0,6.082,3.1A11.8,11.8,0,0,1,25.238,36.872Zm3.423-1.081a18.129,18.129,0,0,1-6.207-2.957,6.323,6.323,0,0,0,.811-7.339,7.489,7.489,0,0,0-.673-1.084,36.959,36.959,0,0,1,7.65-4.332c.1.126.195.251.3.374,1.67,1.992,3.7,3.146,5.278,3.146a2.556,2.556,0,0,0,1.057-.221,11.7,11.7,0,0,1-.461,5.389,6.455,6.455,0,0,0-7.755,7.023ZM35.088,40.5A5.409,5.409,0,1,1,40.5,35.095,5.415,5.415,0,0,1,35.088,40.5Z" transform="translate(-12.416 -12.284)" fill="#fac25a"/></svg>