<svg xmlns="http://www.w3.org/2000/svg" width="28.396" height="28.394" viewBox="0 0 28.396 28.394"><path d="M40.381,38.716h-.027a4.346,4.346,0,0,0,1.688-3.327,4.446,4.446,0,0,0-2.95-4.181h-.007l-4.741-1.616,1.743-8.953h.63a2.775,2.775,0,0,0,2.773-2.773V15.314a1.664,1.664,0,0,0-3.327,0v2H33.391a1.663,1.663,0,0,0-.667,3.186l-1.557,8.013-7.9-2.688a7.122,7.122,0,0,0-1.434-.347l-.97-3.727h1.818a2.055,2.055,0,0,0,.339-4.083c-6.762-1.114-6.407-1.1-6.788-1.1a2.59,2.59,0,0,0,0,5.179h1.177l1.061,4.063a7.211,7.211,0,0,0-1.463,12.906h-1.7a1.664,1.664,0,1,0,0,3.327H40.378a1.664,1.664,0,1,0,0-3.327ZM33.39,18.421v0h3.327a.554.554,0,0,0,.554-.554V15.314a.555.555,0,1,1,1.109,0v2.551a1.665,1.665,0,0,1-1.664,1.664H33.36a.554.554,0,0,1,.03-1.107Zm.436,2.216h1.131L33.285,29.23l-1.058-.36Zm-17.589,0a1.482,1.482,0,0,1,0-2.963c.227,0-.05-.022,6.606,1.08a.947.947,0,0,1-.156,1.88Zm4.435,4.772a7.287,7.287,0,0,0-1.123.117l-.986-3.78h1.156Zm-5.914,7.2A6.1,6.1,0,0,1,22.9,26.866h.008L38.724,32.25a3.335,3.335,0,0,1,2.209,3.135,3.6,3.6,0,0,1-3.658,3.272l-17.207,0A6.1,6.1,0,0,1,14.758,32.615Zm25.62,8.319H15.312a.555.555,0,0,1,0-1.109H40.378a.555.555,0,1,1,0,1.109Z" transform="translate(-13.647 -13.649)" fill="#fac25a"/></svg>