<svg xmlns="http://www.w3.org/2000/svg" width="43.233" height="30.981" viewBox="0 0 43.233 30.981"><path d="M5.152,18.792a.756.756,0,0,0-.371.99l1.7,3.649a.754.754,0,0,0,1,.371l12.845-6L19.16,29.966a.756.756,0,0,0,.249.635,3.3,3.3,0,0,0,2,.755,2.429,2.429,0,0,0,.6-.075c1.043-.272,1.851-1.2,2.4-2.788l5.055-14.967L39.47,8.856c2.947-1.375,4.465-4.163,3.445-6.339A3.825,3.825,0,0,0,39.961.454a7,7,0,0,0-4.125.635L24.283,6.507,11.862,1.648c-1.564-.589-2.8-.574-3.672.053a3.081,3.081,0,0,0-1.126,2.44.756.756,0,0,0,.325.6l8.364,5.75-4.79,2.267-8.032-2.04a.756.756,0,0,0-.839.363l-2,3.6a.756.756,0,0,0,.393,1.065L6.429,18.2ZM8.612,3.764a1.293,1.293,0,0,1,.454-.816c.431-.31,1.217-.265,2.267.128L22.394,7.391,17.347,9.748Zm-6.8,10.91,1.315-2.335,7.729,1.919a.757.757,0,0,0,.5-.045L36.478,2.479A5.522,5.522,0,0,1,39.7,1.966a2.366,2.366,0,0,1,1.844,1.194c.634,1.36-.612,3.347-2.721,4.329l-8.7,4.08L30.652,10a.768.768,0,1,0-1.458-.483l-6.218,18.5c-.37,1.051-.831,1.678-1.345,1.813a1.279,1.279,0,0,1-.922-.173L22.22,13.8a.759.759,0,0,0-1.511-.143l-.234,2.425L7.509,22.124,6.445,19.857l2.13-1a.755.755,0,0,0,0-1.383Zm0,0" transform="translate(0.001 -0.376)" fill="#fac25a"/></svg>