<svg xmlns="http://www.w3.org/2000/svg" xmlns:xlink="http://www.w3.org/1999/xlink" width="43.152" height="43.153" viewBox="0 0 43.152 43.153"><defs><clipPath id="a"><path d="M214.849,275.346a1.339,1.339,0,0,1-.562-1.153,1.972,1.972,0,0,1,.813-1.593l.008-.006.071-.051a2.785,2.785,0,0,0,1.08-1.706,2.792,2.792,0,0,0,1.089,1.712l.04.029.019.014.042.034a1.956,1.956,0,0,1,.778,1.563,1.507,1.507,0,0,1-1.468,1.5,3.355,3.355,0,0,1-.5.04h0a2.406,2.406,0,0,1-1.408-.381m-5.125-.655a2.415,2.415,0,0,1-1.224-.8,1.34,1.34,0,0,1-.177-1.27,1.971,1.971,0,0,1,1.264-1.264l.011,0,.083-.027a2.785,2.785,0,0,0,1.555-1.29,2.79,2.79,0,0,0,.507,1.967l.029.039.013.018c.01.015.018.03.031.047a1.956,1.956,0,0,1,.256,1.726,1.336,1.336,0,0,1-1.122.981,1.991,1.991,0,0,1-.319.025,3.059,3.059,0,0,1-.907-.151m11.612.074a1.337,1.337,0,0,1-.889-.923,1.969,1.969,0,0,1,.279-1.767l.007-.008.052-.071a2.78,2.78,0,0,0,.5-1.957,2.8,2.8,0,0,0,1.564,1.294l.048.014.021.007.052.019a1.956,1.956,0,0,1,1.222,1.247c.441,1.354-.958,1.927-1.4,2.07a3.31,3.31,0,0,1-.505.124,2.556,2.556,0,0,1-.4.033,1.833,1.833,0,0,1-.558-.082m-7.9-2.364a1.885,1.885,0,0,1-1.32-.6c-.013-.016-.028-.038-.045-.058a2.385,2.385,0,0,1-.4-1.771,2.131,2.131,0,1,1,4.195.665,2.372,2.372,0,0,1-.931,1.558.021.021,0,0,1-.008.006h0l-.068.049,0,0a1.209,1.209,0,0,1-.5.191,1.755,1.755,0,0,1-.289.022,4.111,4.111,0,0,1-.626-.059m4.2-.167-.059-.042a2.374,2.374,0,0,1-.931-1.558,2.13,2.13,0,1,1,4.194-.664,2.371,2.371,0,0,1-.4,1.77l-.007.008-.05.067s0,0,0,0a1.883,1.883,0,0,1-1.3.581,4.047,4.047,0,0,1-.628.061,1.385,1.385,0,0,1-.815-.227m-12.4-3.791a2.83,2.83,0,0,0,1.46-.713,2.793,2.793,0,0,0-.126,2.026c.005.015.01.032.015.046l.006.022c.005.018.009.034.015.054a1.955,1.955,0,0,1-.29,1.722c-.836,1.153-2.122.358-2.5.087a2.4,2.4,0,0,1-.919-1.137,1.343,1.343,0,0,1,.224-1.263,1.978,1.978,0,0,1,1.6-.812h.1a2.7,2.7,0,0,0,.418-.033m20.952,3.163a1.974,1.974,0,0,1-.281-1.767.046.046,0,0,0,.005-.01l.028-.083a2.8,2.8,0,0,0-.13-2.016,2.789,2.789,0,0,0,1.889.745h.07l.055,0a1.958,1.958,0,0,1,1.548.808c.838,1.151-.315,2.129-.689,2.4a2.642,2.642,0,0,1-1.113.5,1.756,1.756,0,0,1-.251.022h-.006a1.34,1.34,0,0,1-1.125-.6m-18.125-.949a1.892,1.892,0,0,1-1.069-.982c-.007-.02-.014-.044-.023-.068a2.378,2.378,0,0,1,.163-1.807,2.13,2.13,0,1,1,3.783,1.927,2.366,2.366,0,0,1-1.367,1.195l-.009,0h0l-.081.025h0a1.128,1.128,0,0,1-.137.031,1.159,1.159,0,0,1-.187.014,2.425,2.425,0,0,1-1.07-.337m14.963.285-.067-.021a2.379,2.379,0,0,1-1.369-1.195,2.131,2.131,0,1,1,3.784-1.928,2.371,2.371,0,0,1,.163,1.808.024.024,0,0,0,0,.009h0l-.028.081v0a1.9,1.9,0,0,1-1.056.956,2.942,2.942,0,0,1-.861.321,1.4,1.4,0,0,1-.216.017,1.241,1.241,0,0,1-.347-.05m-8.837-3.365a.455.455,0,0,1-.255-.138l-.464-.472a.964.964,0,0,1,.228-1.407l.589-.3a.447.447,0,0,1,.545.088l.462.474a.865.865,0,0,1,.2.678l-.011.071a.89.89,0,0,1-.424.656l-.589.3a.507.507,0,0,1-.15.05.386.386,0,0,1-.069.006.328.328,0,0,1-.065-.006m3.833-.05-.587-.307a.966.966,0,0,1-.218-1.408l.466-.469a.444.444,0,0,1,.545-.085l.586.306a.862.862,0,0,1,.4.582l.011.073a.886.886,0,0,1-.2.754l-.466.47a.456.456,0,0,1-.256.137.472.472,0,0,1-.285-.052m-3.2.272.423-.217a1.3,1.3,0,0,0,.636-.945c0-.023.005-.048.008-.072l.357-2.219c0-.017,0-.034.007-.051,0,.013,0,.027,0,.04l.355,2.289a1.292,1.292,0,0,0,.63.952l.431.227a2.635,2.635,0,0,0-1.424,1.852,2.629,2.629,0,0,0-1.427-1.855m-11.728-3.666a2.8,2.8,0,0,0-.745,1.888.366.366,0,0,1,0,.049v.023c0,.016,0,.035,0,.055a1.956,1.956,0,0,1-.807,1.547,1.5,1.5,0,0,1-.648.284,2.037,2.037,0,0,1-1.752-.972,2.4,2.4,0,0,1-.522-1.365,1.34,1.34,0,0,1,.6-1.131,1.972,1.972,0,0,1,1.768-.281l.009.005.083.028a2.737,2.737,0,0,0,.833.131,2.849,2.849,0,0,0,1.181-.26m27.866,3.569a1.966,1.966,0,0,1-.811-1.594v-.1a2.793,2.793,0,0,0-.746-1.877,2.8,2.8,0,0,0,2.026.127l.046-.016.022-.006c.016-.006.033-.009.053-.016a1.962,1.962,0,0,1,1.722.29c1.153.836.358,2.123.087,2.5a2.4,2.4,0,0,1-1.138.918,1.291,1.291,0,0,1-.225.055,1.323,1.323,0,0,1-.2.016,1.419,1.419,0,0,1-.838-.3m-20.692-1.4a.464.464,0,0,1-.2-.209l-.293-.594a.965.965,0,0,1,.649-1.266l.655-.106a.441.441,0,0,1,.489.251l.3.593a.864.864,0,0,1-.015.709l-.034.065a.892.892,0,0,1-.606.492l-.653.105h0a.459.459,0,0,1-.083.007.44.44,0,0,1-.2-.047m11.665.044-.652-.11a.966.966,0,0,1-.643-1.272l.3-.59a.448.448,0,0,1,.493-.25l.652.111a.867.867,0,0,1,.564.429l.033.065a.892.892,0,0,1,.043.779l-.3.591a.448.448,0,0,1-.2.208.4.4,0,0,1-.127.041.437.437,0,0,1-.074.006.412.412,0,0,1-.087-.008m-11.127.364.47-.076a1.3,1.3,0,0,0,.9-.7c.01-.022.02-.045.03-.067l1.028-2c.007-.015.012-.032.019-.047,0,.013-.006.026-.008.039l-.37,2.288a1.292,1.292,0,0,0,.3,1.1l.341.349a2.631,2.631,0,0,0-1.927,1.322,2.632,2.632,0,0,0-.784-2.207m8.172.882.335-.339a1.292,1.292,0,0,0,.314-1.093c0-.024-.011-.048-.016-.071l-.343-2.221c0-.018-.007-.035-.011-.051.005.012.01.024.016.036l1.045,2.069a1.292,1.292,0,0,0,.892.711l.482.082a2.638,2.638,0,0,0-.782,2.2,2.631,2.631,0,0,0-1.931-1.325M203.5,267.34a1.893,1.893,0,0,1-.714-1.264c0-.011,0-.025,0-.037h0V266a2.376,2.376,0,0,1,.713-1.67,2.13,2.13,0,1,1,3,3,2.417,2.417,0,0,1-1.323.687,2.451,2.451,0,0,1-.345.028s0,0,0,0h-.094a1.891,1.891,0,0,1-1.236-.709m22.515,0a2.13,2.13,0,1,1,3-3,2.37,2.37,0,0,1,.714,1.669.017.017,0,0,1,0,.01h0v.085a0,0,0,0,0,0,0,1.9,1.9,0,0,1-.709,1.236,2.1,2.1,0,0,1-1.107.7,1.538,1.538,0,0,1-.158.015c-.01,0-.025,0-.037,0h-.035a2.381,2.381,0,0,1-1.671-.714m-12.369-3.413a.891.891,0,0,1,.424-.655l.589-.3a.444.444,0,0,1,.544.088l.464.473a.9.9,0,0,1,.2.756l-.214,1.328c-.02-.023-.04-.048-.062-.072l-.462-.473a.84.84,0,0,0-1.015-.164l-.589.3c-.031.016-.059.035-.089.054Zm3.016.35a.89.89,0,0,1,.2-.754l.468-.47a.443.443,0,0,1,.544-.086l.586.307a.892.892,0,0,1,.42.658l.206,1.331c-.028-.017-.053-.036-.081-.05l-.586-.306a.838.838,0,0,0-1.016.157l-.467.471a.833.833,0,0,0-.067.079Zm-8.535.232a1.385,1.385,0,0,0,.743-.387c.017-.017.033-.036.05-.054l1.594-1.585.035-.039c-.006.012-.013.023-.02.035l-1.059,2.062a1.3,1.3,0,0,0-.05,1.139l.217.438a2.636,2.636,0,0,0-2.242.663,2.633,2.633,0,0,0-.063-2.341l.47.072a.921.921,0,0,0,.152.012,1.127,1.127,0,0,0,.174-.014m14.964,1.182a1.3,1.3,0,0,0-.041-1.137c-.011-.021-.025-.043-.037-.063L222,262.48c-.007-.015-.017-.029-.026-.043.01.009.017.019.026.029l1.634,1.645a1.3,1.3,0,0,0,1.068.4l.483-.07a2.633,2.633,0,0,0-.062,2.336,2.629,2.629,0,0,0-2.245-.663Zm-7.139-2.442-.459-.468a1.276,1.276,0,0,0,.765-.6,1.282,1.282,0,0,0,.771.6l-.451.456a1.188,1.188,0,0,0-.316.691,1.2,1.2,0,0,0-.31-.683m-5.067-.587a.891.891,0,0,1,.605-.492l.654-.106a.442.442,0,0,1,.49.252l.294.593a.882.882,0,0,1-.047.777l-.616,1.2a.534.534,0,0,0-.036-.088l-.293-.593a.841.841,0,0,0-.915-.47l-.653.106c-.034.006-.068.015-.1.025Zm8.753,1.015a.891.891,0,0,1-.042-.779l.3-.591a.449.449,0,0,1,.493-.249l.652.111a.889.889,0,0,1,.6.5l.609,1.2a.607.607,0,0,0-.093-.021l-.652-.111a.842.842,0,0,0-.917.464l-.3.591a.929.929,0,0,0-.041.1Zm4.285.154a.886.886,0,0,1-.281-.728l.1-.654a.445.445,0,0,1,.391-.389l.655-.1a.868.868,0,0,1,.67.234l.051.052a.887.887,0,0,1,.281.727l-.1.655a.471.471,0,0,1-.127.261.456.456,0,0,1-.255.125H225.3l-.655.1a.634.634,0,0,1-.09.006.931.931,0,0,1-.633-.289m-16.063.281-.653-.1a.47.47,0,0,1-.262-.129.454.454,0,0,1-.125-.261l-.1-.655a.967.967,0,0,1,1.01-1l.655.1a.449.449,0,0,1,.389.393l.1.655a.872.872,0,0,1-.234.669l-.052.051a.976.976,0,0,1-.524.279.674.674,0,0,1-.11.009.714.714,0,0,1-.094-.007m5.388-1.982a.66.66,0,0,1,1.209.491l-.571.294a1.189,1.189,0,0,0-.515.561,1.19,1.19,0,0,0-.084-.745l-.291-.585h.051a1.3,1.3,0,0,0,.2-.016m5.4.789-.579-.3a.792.792,0,0,1,1.461-.471l-.288.572a1.194,1.194,0,0,0-.088.756,1.187,1.187,0,0,0-.507-.553m2.461-1.146-.644-.109a.792.792,0,0,1,1.243-.9l-.1.634a.416.416,0,1,1-.5.376m-9.318-1.041a1.278,1.278,0,0,0,.273.937l-.633.1a.416.416,0,1,1-.513-.362l-.1-.646a1.263,1.263,0,0,0,.443.079,1.294,1.294,0,0,0,.526-.112m3.221,1.739a.939.939,0,1,1,.146.011,1,1,0,0,1-.146-.011m1.435-.774a.931.931,0,1,1,1.065.775.882.882,0,0,1-.145.012.935.935,0,0,1-.92-.787m-7.173,1.355-.1-.656a.839.839,0,0,0-.724-.729l-.654-.1a.882.882,0,0,0-.105-.008l.961-.953a.888.888,0,0,1,.728-.281l.653.1a.445.445,0,0,1,.39.391l.1.655a.884.884,0,0,1-.285.726l-.955.95a.89.89,0,0,0-.008-.094m13.014-.866a.891.891,0,0,1-.281-.728l.1-.655a.444.444,0,0,1,.391-.388l.655-.1a.89.89,0,0,1,.726.286l.95.955a.739.739,0,0,0-.095.007l-.655.1a.874.874,0,0,0-.49.24.856.856,0,0,0-.239.485l-.1.655a.676.676,0,0,0-.008.1Zm-16.423-.68a1.449,1.449,0,0,0,.422-.136c.023-.011.044-.025.064-.037l2.007-1.015.044-.025-.029.027-1.644,1.633a1.3,1.3,0,0,0-.4,1.069l.072.482a2.636,2.636,0,0,0-2.336-.062,2.631,2.631,0,0,0,.664-2.246l.424.214a1.136,1.136,0,0,0,.5.112,1.344,1.344,0,0,0,.211-.017m20.328,1.53a1.3,1.3,0,0,0-.389-1.07c-.017-.016-.037-.032-.055-.049l-1.585-1.594-.038-.035c.012.006.023.014.035.02l2.061,1.058a1.3,1.3,0,0,0,1.14.051l.438-.217a2.636,2.636,0,0,0,.663,2.242,2.63,2.63,0,0,0-2.341.063ZM212.633,261.7a.933.933,0,1,1,.567.09.844.844,0,0,1-.144.012.924.924,0,0,1-.423-.1m6-.406a.931.931,0,1,1,1.252.406.888.888,0,0,1-.277.09.849.849,0,0,1-.143.012.934.934,0,0,1-.832-.508m-17.405,2.57-.01,0h0l-.08-.027s0,0,0,0a2.713,2.713,0,0,1-1.245-2.478c.007-.02.014-.045.022-.07a2.379,2.379,0,0,1,1.2-1.366,2.13,2.13,0,1,1,1.927,3.783,2.477,2.477,0,0,1-.741.243,2.371,2.371,0,0,1-.369.03,2.274,2.274,0,0,1-.7-.109m28.252-.163a2.13,2.13,0,1,1,1.929-3.783,2.369,2.369,0,0,1,1.194,1.366l0,.01h0l.025.08s0,0,0,0a2.707,2.707,0,0,1-1.275,2.463c-.019.008-.043.015-.067.023a2.154,2.154,0,0,1-.337.08,2.3,2.3,0,0,1-.364.03,2.438,2.438,0,0,1-1.108-.272m-13.333-3.1a.686.686,0,0,1-.577-.677.686.686,0,1,1,.793.677.548.548,0,0,1-.108.009h-.01a.541.541,0,0,1-.1-.009m1.45-.326a.686.686,0,1,1,.523.041.943.943,0,0,1-.106.026.735.735,0,0,1-.106.008.69.69,0,0,1-.31-.074m-3.205.039a.6.6,0,0,1-.1-.043.671.671,0,0,1-.3-.3.686.686,0,0,1,.823-.964.675.675,0,0,1,.4.34.687.687,0,0,1-.506.99.772.772,0,0,1-.107.008.692.692,0,0,1-.21-.034m12.016.693a.891.891,0,0,1-.493-.606l-.105-.653a.443.443,0,0,1,.251-.49l.593-.294a.868.868,0,0,1,.709.015l.064.034a.888.888,0,0,1,.492.6l.107.654a.468.468,0,0,1-.041.288.455.455,0,0,1-.21.2l-.592.294a.684.684,0,0,1-.191.059.854.854,0,0,1-.127.009,1.024,1.024,0,0,1-.458-.114m-21.081.041-.591-.3a.444.444,0,0,1-.247-.489l.11-.653a.967.967,0,0,1,1.271-.642l.591.3a.446.446,0,0,1,.25.492l-.112.652a.859.859,0,0,1-.428.565l-.065.033a1.012,1.012,0,0,1-.312.1.917.917,0,0,1-.147.012.7.7,0,0,1-.321-.071m3.738-1.624.109-.644a.792.792,0,0,1,.9,1.244l-.634-.1a.415.415,0,1,1-.376-.5m13.686-.385a1.27,1.27,0,0,0,.6-.264l.1.633a.415.415,0,1,1-.361.512l-.645.1a1.285,1.285,0,0,0-.034-.969,1.268,1.268,0,0,0,.139.008,1.3,1.3,0,0,0,.2-.016m9.75.546a2.779,2.779,0,0,0,1.188-.491l.039-.03.017-.012.047-.031a1.963,1.963,0,0,1,1.728-.256c1.354.438,1,1.907.854,2.348a2.41,2.41,0,0,1-.8,1.224,1.342,1.342,0,0,1-1.269.177,1.972,1.972,0,0,1-1.265-1.264.084.084,0,0,0,0-.01l-.026-.084a2.8,2.8,0,0,0-1.291-1.555,3.055,3.055,0,0,0,.333.018,2.943,2.943,0,0,0,.446-.034m-36.357,1.527a2.4,2.4,0,0,1-.075-1.459,1.343,1.343,0,0,1,.922-.89,1.975,1.975,0,0,1,1.767.28.078.078,0,0,1,.009.007l.07.053a2.79,2.79,0,0,0,1.958.5,2.8,2.8,0,0,0-1.294,1.565c0,.015-.009.032-.014.048l-.007.019c-.007.018-.012.034-.019.053a1.957,1.957,0,0,1-1.247,1.222,1.823,1.823,0,0,1-.274.066,1.493,1.493,0,0,1-.228.018h0c-1,0-1.444-1.1-1.567-1.482m14.464-.884a.931.931,0,1,1,.8.26.986.986,0,0,1-.147.011.931.931,0,0,1-.657-.272m9.983,0a.934.934,0,1,1,.807.26,1.007,1.007,0,0,1-.147.011.939.939,0,0,1-.66-.272m-1.3-.646a.685.685,0,1,1,.51-.121.805.805,0,0,1-.093.056.687.687,0,0,1-.2.066.75.75,0,0,1-.107.007.637.637,0,0,1-.108-.008m-6.582-.126a.608.608,0,0,1-.083-.07.686.686,0,0,1-.192-.376.686.686,0,1,1,.785.569.778.778,0,0,1-.109.008.684.684,0,0,1-.4-.131M207,260.476l.111-.654a.844.844,0,0,0-.465-.917l-.59-.3a1.022,1.022,0,0,0-.1-.04l1.208-.611a.889.889,0,0,1,.778-.042l.591.3a.445.445,0,0,1,.25.493l-.111.651a.889.889,0,0,1-.5.6l-1.2.608a.72.72,0,0,0,.021-.091m17.347-.526a.9.9,0,0,1-.493-.605l-.105-.655A.443.443,0,0,1,224,258.2l.593-.294a.881.881,0,0,1,.778.047l1.2.615a.846.846,0,0,0-.089.037l-.592.294a.838.838,0,0,0-.47.914l.106.653a1.032,1.032,0,0,0,.025.1Zm4.587-2.3.349-.341a2.636,2.636,0,0,0,1.322,1.927,2.624,2.624,0,0,0-2.206.784l-.078-.47a1.3,1.3,0,0,0-.7-.9c-.023-.011-.045-.02-.067-.031l-2-1.026c-.015-.008-.031-.013-.047-.021.013,0,.026.007.039.009l2.288.37a1.375,1.375,0,0,0,.233.018,1.244,1.244,0,0,0,.866-.323m-25.686-.345.338.336a1.293,1.293,0,0,0,1.094.312c.023,0,.047-.01.071-.015l2.221-.344c.017,0,.034-.008.051-.01l-.037.015-2.068,1.046a1.292,1.292,0,0,0-.711.892l-.082.481a2.633,2.633,0,0,0-2.2-.782,2.631,2.631,0,0,0,1.324-1.931m16.938.971a.686.686,0,1,1,.958-.151.975.975,0,0,1-.07.083.685.685,0,0,1-.377.191.658.658,0,0,1-.109.009.675.675,0,0,1-.4-.132m-8.8-.156a.688.688,0,0,1-.056-.094.669.669,0,0,1-.065-.416.686.686,0,0,1,1.232-.3.674.674,0,0,1,.123.511.681.681,0,0,1-.569.57.759.759,0,0,1-.107.008.687.687,0,0,1-.557-.283m-2.237.084a.931.931,0,1,1,1.253.407.943.943,0,0,1-.277.09.88.88,0,0,1-.146.012.93.93,0,0,1-.83-.51m12.988.407a.931.931,0,1,1,.568.09.877.877,0,0,1-.145.012.936.936,0,0,1-.423-.1m-14.207-1.647.3-.579a.792.792,0,0,1,.472,1.461l-.572-.289a1.2,1.2,0,0,0-.757-.088,1.187,1.187,0,0,0,.554-.505m15.573-.038a1.275,1.275,0,0,0,.808-.548l.294.571a1.2,1.2,0,0,0,.56.515,1.182,1.182,0,0,0-.745.084l-.586.29a1.288,1.288,0,0,0-.331-.911m-2.361-.043a.686.686,0,0,1-.44-.864.685.685,0,0,1,.864-.44.685.685,0,0,1,.44.864.578.578,0,0,1-.042.1.671.671,0,0,1-.3.3.663.663,0,0,1-.206.069.692.692,0,0,1-.1.007.7.7,0,0,1-.214-.034m-10.612-.445a.763.763,0,0,1-.026-.106.685.685,0,0,1,.467-.758.686.686,0,0,1,.822.964.679.679,0,0,1-.4.34.636.636,0,0,1-.105.025.614.614,0,0,1-.106.009.687.687,0,0,1-.653-.475m17.378,1.118a.89.89,0,0,1-.655-.424l-.3-.588a.448.448,0,0,1,.088-.546l.473-.463a.869.869,0,0,1,.678-.2l.074.011a.9.9,0,0,1,.655.424l.3.588a.44.44,0,0,1-.087.541l-.473.462a.775.775,0,0,1-.422.2,1.17,1.17,0,0,1-.33,0m-24.037-.2-.469-.467a.461.461,0,0,1-.138-.256.469.469,0,0,1,.053-.285l.307-.587a.967.967,0,0,1,1.407-.217l.47.466a.445.445,0,0,1,.085.546l-.306.584a.866.866,0,0,1-.582.405l-.073.01a1.054,1.054,0,0,1-.168.014.843.843,0,0,1-.587-.213m1.764-.03.307-.586a.843.843,0,0,0-.157-1.016l-.471-.466c-.025-.023-.051-.046-.079-.068l1.337-.207a.886.886,0,0,1,.754.2l.471.466a.445.445,0,0,1,.084.545l-.306.586a.893.893,0,0,1-.655.42h0l-1.331.206a.914.914,0,0,0,.049-.081m19.981-.134a.9.9,0,0,1-.656-.424l-.3-.589a.443.443,0,0,1,.089-.544l.472-.464a.892.892,0,0,1,.756-.2l1.329.214c-.023.02-.049.04-.072.061l-.473.463a.865.865,0,0,0-.256.482.855.855,0,0,0,.092.533l.3.589c.015.03.035.059.054.089Zm-26.51,1.572-.008-.006h0l-.067-.05s0,0,0,0a2.719,2.719,0,0,1-.419-2.742c.014-.017.029-.038.044-.059a2.378,2.378,0,0,1,1.558-.931,2.131,2.131,0,1,1,.665,4.195h0a2.6,2.6,0,0,1-.4.031,2.331,2.331,0,0,1-1.37-.434m32.556.4a2.131,2.131,0,1,1,.665-4.195,2.373,2.373,0,0,1,1.558.931.029.029,0,0,1,.007.008h0l.048.068a0,0,0,0,0,0,0,2.71,2.71,0,0,1-.451,2.737l-.057.044a2.325,2.325,0,0,1-.993.406,2.623,2.623,0,0,1-.38.029,2.776,2.776,0,0,1-.4-.031m-23.285-3.338a.931.931,0,1,1,1.064.774.882.882,0,0,1-.146.011.932.932,0,0,1-.918-.785m14.72.774a.927.927,0,1,1,.291,0,.959.959,0,0,1-.143.01.914.914,0,0,1-.148-.011m-2.166-2.022a.687.687,0,0,1,.685-.686.689.689,0,0,1,.687.687.992.992,0,0,1-.009.109.688.688,0,0,1-.193.375.672.672,0,0,1-.377.192.735.735,0,0,1-.108.009.687.687,0,0,1-.685-.686m-10.694-.005a.771.771,0,0,1,.008-.109.688.688,0,0,1,.193-.376.686.686,0,0,1,.969.97.667.667,0,0,1-.376.192.635.635,0,0,1-.109.009h0a.686.686,0,0,1-.684-.686m-2.628.323a1.2,1.2,0,0,0-.691-.317.277.277,0,0,0,.041-.006,1.175,1.175,0,0,0,.641-.3l.468-.458a.793.793,0,0,1,0,1.537Zm16.268-.32a1.282,1.282,0,0,0,.6-.772l.456.452a1.2,1.2,0,0,0,.692.316,1.191,1.191,0,0,0-.683.31l-.468.458a1.277,1.277,0,0,0-.6-.765m5.4,1a1.293,1.293,0,0,0-.943-.635c-.025,0-.049-.006-.073-.008l-2.219-.358c-.017,0-.035,0-.051-.006a.241.241,0,0,0,.039,0l2.29-.355h.005a1.29,1.29,0,0,0,.947-.627l.227-.433a2.632,2.632,0,0,0,1.853,1.424A2.631,2.631,0,0,0,229.482,256Zm-28.082-1a2.631,2.631,0,0,0,1.855-1.427l.219.422a1.289,1.289,0,0,0,.942.636c.025,0,.048.005.074.008l2.219.358a.38.38,0,0,0,.05.005l-.039.005-2.29.354a1.3,1.3,0,0,0-.952.63l-.226.432a2.638,2.638,0,0,0-1.852-1.424m33.1,1.16a.047.047,0,0,0-.005-.008l-.051-.073a2.786,2.786,0,0,0-1.707-1.079,2.787,2.787,0,0,0,1.714-1.091l.029-.039.013-.018.035-.043a1.959,1.959,0,0,1,1.563-.778c1.424,0,1.537,1.506,1.538,1.969a2.408,2.408,0,0,1-.381,1.411,1.288,1.288,0,0,1-.879.54,1.8,1.8,0,0,1-.273.02h0a1.974,1.974,0,0,1-1.593-.812m-39.173-1.16a2.419,2.419,0,0,1,.381-1.411,1.339,1.339,0,0,1,1.154-.562,1.973,1.973,0,0,1,1.593.813.022.022,0,0,1,.005.009l.051.07a2.789,2.789,0,0,0,1.707,1.08,2.8,2.8,0,0,0-1.714,1.089c-.009.014-.018.027-.029.041l-.013.017-.034.044a1.962,1.962,0,0,1-1.255.753,1.942,1.942,0,0,1-.309.026h0c-1.421,0-1.535-1.507-1.536-1.969m14.032-.185a.932.932,0,1,1,.29,0,.974.974,0,0,1-.144.011,1.011,1.011,0,0,1-.146-.011m13.172-.774a.931.931,0,1,1,1.065.774,1.027,1.027,0,0,1-.147.011.932.932,0,0,1-.918-.785m-1.62-.48a.687.687,0,0,1,.441-.864.688.688,0,0,1,.864.44.9.9,0,0,1,.025.107.685.685,0,0,1-.466.758.832.832,0,0,1-.105.026.765.765,0,0,1-.106.008.688.688,0,0,1-.654-.475m-9.73.436a.687.687,0,0,1-.441-.864.883.883,0,0,1,.042-.1.683.683,0,0,1,.3-.3.672.672,0,0,1,.522-.041.686.686,0,0,1,.441.864.676.676,0,0,1-.341.4.653.653,0,0,1-.2.067.636.636,0,0,1-.106.008.69.69,0,0,1-.212-.034m14.239.4-.47-.467a.444.444,0,0,1-.085-.544l.307-.586a.891.891,0,0,1,.658-.42l1.331-.205a.571.571,0,0,0-.049.08l-.308.585a.841.841,0,0,0,.157,1.016l.471.467a.71.71,0,0,0,.08.067l-1.338.208a1.151,1.151,0,0,1-.166.012.831.831,0,0,1-.587-.213m-18.648.207-1.329-.215c.025-.019.049-.039.073-.06l.473-.463a.843.843,0,0,0,.164-1.015l-.3-.588a.776.776,0,0,0-.054-.089l1.336.214a.891.891,0,0,1,.655.424l.3.589a.443.443,0,0,1-.089.544l-.473.463a.769.769,0,0,1-.421.2,1.066,1.066,0,0,1-.161.013,1.13,1.13,0,0,1-.174-.015m20.941-.566-.469-.467a.444.444,0,0,1-.086-.545l.306-.586a.872.872,0,0,1,.583-.4l.072-.01a.891.891,0,0,1,.754.2l.47.467a.44.44,0,0,1,.085.541l-.307.586a.887.887,0,0,1-.655.419,1.018,1.018,0,0,1-.166.013.842.842,0,0,1-.587-.212m-23.156.207-.073-.012a.888.888,0,0,1-.655-.423l-.3-.589a.443.443,0,0,1,.088-.541l.473-.462a.965.965,0,0,1,1.406.227l.3.588a.446.446,0,0,1-.088.545l-.474.463a.773.773,0,0,1-.419.2,1.048,1.048,0,0,1-.161.013c-.033,0-.064,0-.1-.005m3.472-2.122a.97.97,0,0,0,.3-.093l.586-.29a1.3,1.3,0,0,0,.331.911,1.277,1.277,0,0,0-.807.548l-.294-.571a1.2,1.2,0,0,0-.561-.515,1.342,1.342,0,0,0,.254.023,1.21,1.21,0,0,0,.193-.014m15.683.528a1.281,1.281,0,0,0,.331-.919l.573.288a1.2,1.2,0,0,0,.756.088,1.184,1.184,0,0,0-.553.505l-.3.579a1.279,1.279,0,0,0-.8-.541m-3.461-.388a.687.687,0,0,1,.151-.959.687.687,0,0,1,.958.152.737.737,0,0,1,.057.093.683.683,0,0,1,.064.418.689.689,0,0,1-.676.578.681.681,0,0,1-.555-.282m-8.5.147a.685.685,0,0,1-.151-.957.564.564,0,0,1,.07-.084.687.687,0,0,1,.886-.069.687.687,0,0,1,.152.958.677.677,0,0,1-.447.275h0a.643.643,0,0,1-.108.008.681.681,0,0,1-.4-.131m-1.985.214a.929.929,0,1,1,.567.091.863.863,0,0,1-.145.011.921.921,0,0,1-.422-.1m12.174-.406a.931.931,0,1,1,1.253.406.984.984,0,0,1-.278.091,1,1,0,0,1-.145.01.929.929,0,0,1-.83-.508m-21.518,2.39a2.373,2.373,0,0,1-1.558-.931.022.022,0,0,1-.006-.007h0l-.048-.068,0,0a2.716,2.716,0,0,1,.45-2.738c.017-.011.037-.028.058-.043a2.369,2.369,0,0,1,1.77-.4,2.227,2.227,0,0,1,1.944,2.46,2.149,2.149,0,0,1-1.836,1.734,2.372,2.372,0,0,1-.383.03,2.533,2.533,0,0,1-.389-.03m29.507-1.741a2.221,2.221,0,0,1,1.943-2.453,2.369,2.369,0,0,1,1.771.4l.008.006h0l.067.051,0,0a2.714,2.714,0,0,1,.418,2.741l-.043.06a2.378,2.378,0,0,1-1.555.929h0a2.529,2.529,0,0,1-.389.03,2.191,2.191,0,0,1-2.219-1.77m-14.947-1.978a.867.867,0,0,0,.152-.037.982.982,0,0,0,.6-.562.551.551,0,0,0,.049.06.969.969,0,0,0,.541.278,1.091,1.091,0,0,0,.156.011.984.984,0,0,0,.744-.348.749.749,0,0,0,.029.071.98.98,0,0,0,.429.432,1.279,1.279,0,0,0,.144.059.983.983,0,0,0,.817-.1c0,.025,0,.052,0,.078a.986.986,0,0,0,.275.542,1.106,1.106,0,0,0,.12.1.978.978,0,0,0,.808.157c-.006.025-.015.048-.019.075a.981.981,0,0,0,.094.6.952.952,0,0,0,.082.134.98.98,0,0,0,.721.4c-.014.023-.031.043-.043.066a.979.979,0,0,0-.1.6.885.885,0,0,0,.038.152.976.976,0,0,0,.561.6c-.019.017-.042.031-.06.05a.979.979,0,0,0,.06,1.442c-.024.01-.049.017-.073.029a.978.978,0,0,0-.429.429,1,1,0,0,0-.06.145.982.982,0,0,0,.1.817.655.655,0,0,0-.078,0,.987.987,0,0,0-.541.275,1.064,1.064,0,0,0-.1.121.98.98,0,0,0-.156.808.617.617,0,0,0-.076-.02.979.979,0,0,0-.6.095.882.882,0,0,0-.134.082.982.982,0,0,0-.4.719c-.022-.013-.042-.029-.064-.042a.98.98,0,0,0-1.355.5c-.016-.018-.031-.041-.049-.059a1,1,0,0,0-.7-.29.98.98,0,0,0-.745.349c-.009-.025-.016-.049-.028-.073a.973.973,0,0,0-.43-.43,1.039,1.039,0,0,0-.144-.06.987.987,0,0,0-.817.1c0-.024,0-.051-.005-.077a.973.973,0,0,0-.275-.542.865.865,0,0,0-.119-.1.974.974,0,0,0-.807-.157c.005-.025.014-.049.019-.075a1.008,1.008,0,0,0-.177-.735.983.983,0,0,0-.72-.4c.014-.022.03-.042.043-.064a.982.982,0,0,0-.5-1.355.672.672,0,0,0,.06-.049.979.979,0,0,0-.059-1.443c.025-.01.048-.016.073-.028a.981.981,0,0,0,.43-.429,1.073,1.073,0,0,0,.06-.145.983.983,0,0,0-.1-.816c.025,0,.051,0,.076-.005a.977.977,0,0,0,.542-.275,1.043,1.043,0,0,0,.1-.121.983.983,0,0,0,.157-.807c.025.005.048.015.075.019a.972.972,0,0,0,.6-.095.91.91,0,0,0,.134-.081.98.98,0,0,0,.4-.72c.022.013.043.03.065.042a.992.992,0,0,0,.448.107.939.939,0,0,0,.152-.012m4.24.342a.685.685,0,1,1,.806-1.109.558.558,0,0,1,.085.07.686.686,0,0,1-.381,1.161.757.757,0,0,1-.107.008.685.685,0,0,1-.4-.131m-5.991.121a.677.677,0,0,1-.446-.275.685.685,0,0,1,.151-.958.843.843,0,0,1,.093-.058.686.686,0,1,1,.419,1.291.731.731,0,0,1-.107.008.808.808,0,0,1-.109-.008m12.527.627,2.068-1.046a1.3,1.3,0,0,0,.711-.891l.082-.482a2.637,2.637,0,0,0,2.2.782,2.627,2.627,0,0,0-1.324,1.93l-.339-.335a1.292,1.292,0,0,0-1.094-.312l-.072.015-2.221.344-.051.011.038-.016M202.655,249.9a2.55,2.55,0,0,0,1.471-.767l.077.47a1.3,1.3,0,0,0,.7.9l.066.03,2,1.027c.014.008.032.013.046.02l-.039-.008-2.287-.371a1.3,1.3,0,0,0-1.1.305l-.348.341a2.641,2.641,0,0,0-1.323-1.927,2.668,2.668,0,0,0,.3.016,2.958,2.958,0,0,0,.437-.034m6.411-.154a.415.415,0,1,1,.36-.513l.647-.1a.792.792,0,0,1-.9,1.242Zm14.759-.67a1.188,1.188,0,0,0-.37.653l-.109.645a.792.792,0,0,1-.9-1.244l.634.1a1.011,1.011,0,0,0,.147.011,1.253,1.253,0,0,0,.6-.163m-6.121,1.068a.673.673,0,0,1-.4-.341.685.685,0,0,1,.823-.963.586.586,0,0,1,.1.042.677.677,0,0,1,.3.3.687.687,0,0,1-.505.989.76.76,0,0,1-.107.008.687.687,0,0,1-.21-.034m-3.4-.043a.677.677,0,0,1-.341-.4.687.687,0,0,1,.441-.864.759.759,0,0,1,.106-.026.672.672,0,0,1,.417.067.679.679,0,0,1,.341.4.687.687,0,0,1-.44.864.826.826,0,0,1-.107.027.75.75,0,0,1-.106.008.68.68,0,0,1-.31-.076m-3.688.142a.932.932,0,1,1,.8.26.994.994,0,0,1-.147.012.925.925,0,0,1-.658-.273m9.983,0a.933.933,0,1,1,.806.26,1,1,0,0,1-.146.012.932.932,0,0,1-.66-.273m3.985,1-.591-.3a.446.446,0,0,1-.249-.492l.111-.653a.889.889,0,0,1,.5-.6l1.2-.608a.694.694,0,0,0-.021.091l-.111.654a.835.835,0,0,0,.465.916l.589.3c.032.015.064.026.1.04l-1.208.611a1.094,1.094,0,0,1-.311.1,1.022,1.022,0,0,1-.145.011.716.716,0,0,1-.323-.072m-17.426-.039-1.2-.616a.847.847,0,0,0,.088-.036l.592-.294a.836.836,0,0,0,.47-.913l-.105-.655c-.007-.034-.016-.067-.026-.1l1.2.618a.888.888,0,0,1,.492.605l.106.654a.445.445,0,0,1-.252.491l-.592.293a.662.662,0,0,1-.19.06.88.88,0,0,1-.128.009,1.014,1.014,0,0,1-.462-.116m8.624-1.486a.686.686,0,0,1,.486-1.17.552.552,0,0,1,.108.008.694.694,0,0,1,.376.192.685.685,0,0,1-.377,1.162.629.629,0,0,1-.108.009.678.678,0,0,1-.485-.2m10.871.474-.59-.3a.447.447,0,0,1-.25-.492l.111-.653a.864.864,0,0,1,.429-.564l.064-.034a.893.893,0,0,1,.78-.042l.59.3a.452.452,0,0,1,.209.2.457.457,0,0,1,.039.287l-.111.652a.885.885,0,0,1-.492.6,1.061,1.061,0,0,1-.31.1.912.912,0,0,1-.146.012.725.725,0,0,1-.323-.072m-21.492-.013-.065-.034a.888.888,0,0,1-.491-.605l-.107-.654a.46.46,0,0,1,.041-.287.453.453,0,0,1,.209-.2l.593-.294a.966.966,0,0,1,1.267.652l.106.652a.445.445,0,0,1-.252.491l-.592.293a.661.661,0,0,1-.189.06.856.856,0,0,1-.126.009,1.015,1.015,0,0,1-.394-.084m13.886-1.059a.931.931,0,1,1,.567.09.985.985,0,0,1-.146.011.915.915,0,0,1-.421-.1m-6.818-.407a.932.932,0,1,1,1.253.407.9.9,0,0,1-.276.09,1,1,0,0,1-.145.011.935.935,0,0,1-.832-.508m-1.314-.95a.415.415,0,1,1,.5-.376l.644.109a.792.792,0,0,1-1.243.9Zm9.548-.274.634-.1a.415.415,0,1,1,.512.359l.1.647a.793.793,0,0,1-1.242-.9m-6.223.265a.931.931,0,1,1,1.065.774.872.872,0,0,1-.146.011.934.934,0,0,1-.919-.785m2.984.774a.931.931,0,1,1,.29,0,.861.861,0,0,1-.145.011.876.876,0,0,1-.145-.011m15.8-.536c0-.015.01-.032.015-.047l.006-.021c.007-.017.012-.033.019-.052a1.961,1.961,0,0,1,1.248-1.222c1.353-.442,1.927.958,2.07,1.4a2.407,2.407,0,0,1,.075,1.459,1.341,1.341,0,0,1-.922.889,1.855,1.855,0,0,1-.3.073,1.976,1.976,0,0,1-1.466-.351l-.008-.007-.07-.052a2.784,2.784,0,0,0-1.958-.5,2.8,2.8,0,0,0,1.293-1.565M197,250.388c-1.355-.439-1-1.908-.854-2.348a2.409,2.409,0,0,1,.8-1.224,1.339,1.339,0,0,1,1.269-.177,1.972,1.972,0,0,1,1.265,1.264.041.041,0,0,0,0,.011l.026.083a2.793,2.793,0,0,0,1.29,1.555,2.793,2.793,0,0,0-1.966.506c-.012.01-.027.02-.04.03l-.017.013-.047.031a1.959,1.959,0,0,1-1.727.256m11.643-1.837-.95-.956c.032,0,.062,0,.095-.006l.655-.1.01,0a.842.842,0,0,0,.719-.723l.1-.653a.739.739,0,0,0,.009-.105l.953.961a.888.888,0,0,1,.282.726l-.1.655a.447.447,0,0,1-.392.39l-.654.095a.531.531,0,0,1-.09.007.931.931,0,0,1-.636-.292m14.5.281-.655-.1a.446.446,0,0,1-.389-.391l-.1-.656a.887.887,0,0,1,.286-.725l.955-.95a.758.758,0,0,0,.008.095l.095.654a.87.87,0,0,0,.24.489.857.857,0,0,0,.484.24l.656.1c.034.005.069.006.1.008l-.959.954a.991.991,0,0,1-.524.279.661.661,0,0,1-.109.008.727.727,0,0,1-.095-.006m-9.86-2.394a1.2,1.2,0,0,0,.087-.755,1.185,1.185,0,0,0,.507.552l.58.3a.793.793,0,0,1-1.462.473Zm4.782.1.571-.294a1.2,1.2,0,0,0,.515-.561,1.178,1.178,0,0,0,.084.745l.29.586a.792.792,0,0,1-1.459-.477M206.4,245.65l-.073.471a1.291,1.291,0,0,0,.389,1.068c.017.017.036.033.053.049l1.586,1.6c.012.012.026.022.039.035-.012-.006-.023-.014-.035-.02l-2.062-1.059a1.3,1.3,0,0,0-1.14-.05l-.438.216a2.634,2.634,0,0,0-.662-2.241,2.754,2.754,0,0,0,1.127.244,2.506,2.506,0,0,0,1.214-.307m17.747,3.186,1.644-1.635a1.29,1.29,0,0,0,.4-1.067l-.07-.484a2.636,2.636,0,0,0,2.336.063,2.631,2.631,0,0,0-.663,2.246l-.425-.214a1.291,1.291,0,0,0-1.136.041l-.063.037-2.008,1.014-.044.026.03-.026m-8.661-2.464.452-.455a1.209,1.209,0,0,0,.314-.692,1.2,1.2,0,0,0,.312.683l.458.467a1.283,1.283,0,0,0-.764.6,1.284,1.284,0,0,0-.772-.6m-14.378,2.868a2.376,2.376,0,0,1-1.2-1.366.037.037,0,0,0,0-.01h0l-.026-.079s0,0,0,0a2.712,2.712,0,0,1,1.273-2.463l.068-.022a2.372,2.372,0,0,1,1.809.162,2.229,2.229,0,0,1,1.089,2.941,2.065,2.065,0,0,1-1.54,1.082,2.278,2.278,0,0,1-.366.029,2.445,2.445,0,0,1-1.11-.268m27.281-.849a2.224,2.224,0,0,1,1.09-2.935,2.381,2.381,0,0,1,1.808-.164.025.025,0,0,0,.009,0h0l.08.027h0a2.715,2.715,0,0,1,1.244,2.479c-.007.019-.013.044-.021.067a2.382,2.382,0,0,1-1.194,1.369,2.547,2.547,0,0,1-.733.238,2.455,2.455,0,0,1-.375.029,2.114,2.114,0,0,1-1.912-1.116m-3.608-1.2-.654-.1a.448.448,0,0,1-.39-.391l-.095-.654a.863.863,0,0,1,.233-.67l.051-.051a.888.888,0,0,1,.728-.281l.655.1a.466.466,0,0,1,.261.128.457.457,0,0,1,.126.261l.1.656a.885.885,0,0,1-.283.723.98.98,0,0,1-.524.279.688.688,0,0,1-.111.009.472.472,0,0,1-.093-.008m-17.724-.233-.051-.052a.891.891,0,0,1-.282-.727l.1-.654a.475.475,0,0,1,.127-.261.457.457,0,0,1,.264-.126l.655-.1a.969.969,0,0,1,1,1.011l-.1.655a.446.446,0,0,1-.386.389h0l-.656.095a.511.511,0,0,1-.089.007.911.911,0,0,1-.58-.24m4.25-1.533a.839.839,0,0,0,.622-.467l.3-.591a.907.907,0,0,0,.04-.1l.611,1.208a.891.891,0,0,1,.042.779l-.3.591a.445.445,0,0,1-.493.248l-.653-.11a.893.893,0,0,1-.6-.5l-.608-1.2a.919.919,0,0,0,.093.022l.653.111a.93.93,0,0,0,.158.013.859.859,0,0,0,.137-.01m8.575,1.414-.3-.593a.882.882,0,0,1,.048-.777l.615-1.2a.836.836,0,0,0,.036.088l.294.593a.859.859,0,0,0,.379.391.844.844,0,0,0,.535.077l.652-.105a.8.8,0,0,0,.1-.026l-.619,1.2a.89.89,0,0,1-.6.492l-.655.106h0a.559.559,0,0,1-.082.006.44.44,0,0,1-.4-.259m-5.248-2.5a.864.864,0,0,0,.479-.251l.466-.47c.023-.025.046-.053.068-.08l.206,1.337a.893.893,0,0,1-.2.754l-.466.471a.446.446,0,0,1-.545.085l-.586-.307a.888.888,0,0,1-.42-.658l-.206-1.332a.861.861,0,0,0,.08.05l.586.307a.883.883,0,0,0,.412.1.749.749,0,0,0,.127-.01m2.678,1.755-.462-.472a.892.892,0,0,1-.2-.756l.214-1.328c.019.023.039.048.061.071l.462.473a.843.843,0,0,0,1.015.164l.588-.3a.836.836,0,0,0,.089-.053l-.215,1.335a.885.885,0,0,1-.424.656l-.588.3a.517.517,0,0,1-.151.05.387.387,0,0,1-.068.006.45.45,0,0,1-.326-.145m3.626-1.325-.294-.592a.864.864,0,0,1,.015-.709l.033-.065a.89.89,0,0,1,.606-.491l.652-.107a.465.465,0,0,1,.289.041.457.457,0,0,1,.2.209l.294.594a.881.881,0,0,1-.045.774.894.894,0,0,1-.605.492l-.654.106h0a.547.547,0,0,1-.082.006.442.442,0,0,1-.405-.259m-9.86.254-.653-.11a.862.862,0,0,1-.564-.429l-.034-.065a.891.891,0,0,1-.042-.779l.3-.591a.439.439,0,0,1,.489-.247l.653.111a.966.966,0,0,1,.642,1.27l-.3.591a.437.437,0,0,1-.405.256.514.514,0,0,1-.087-.007m-3.684-2.651a2.625,2.625,0,0,0,2.246.663l-.214.426a1.3,1.3,0,0,0,.041,1.137c.011.022.025.043.037.063l1.014,2.008.026.043c-.009-.009-.017-.019-.027-.03l-1.634-1.644a1.3,1.3,0,0,0-1.068-.4l-.483.07a2.636,2.636,0,0,0,.063-2.336m16.333.674a2.725,2.725,0,0,0,1.393-.674,2.633,2.633,0,0,0,.064,2.341l-.471-.072a1.29,1.29,0,0,0-1.069.389c-.017.017-.033.037-.048.054l-1.6,1.586c-.012.01-.021.025-.034.038a.384.384,0,0,1,.02-.035l1.058-2.062a1.294,1.294,0,0,0,.05-1.14l-.217-.438a2.423,2.423,0,0,0,.849.012m-6.048.757-.462-.474a.86.86,0,0,1-.2-.678l.012-.071a.886.886,0,0,1,.423-.656l.588-.3a.444.444,0,0,1,.542.088l.462.473a.965.965,0,0,1-.227,1.406l-.589.3a.536.536,0,0,1-.151.051.514.514,0,0,1-.068.005.455.455,0,0,1-.326-.144m-3.4.087-.587-.306a.867.867,0,0,1-.4-.582l-.011-.073a.887.887,0,0,1,.2-.754l.466-.47a.44.44,0,0,1,.541-.085l.587.307a.965.965,0,0,1,.217,1.408l-.466.469a.457.457,0,0,1-.256.137.369.369,0,0,1-.066.005.474.474,0,0,1-.223-.057m15.876-.764c0-.015,0-.032,0-.048v-.023c0-.017,0-.035,0-.055a1.958,1.958,0,0,1,.808-1.547c1.152-.838,2.129.314,2.4.688a2.409,2.409,0,0,1,.522,1.365,1.341,1.341,0,0,1-.6,1.131,1.972,1.972,0,0,1-1.768.279l-.01,0-.082-.028a2.786,2.786,0,0,0-2.016.13,2.8,2.8,0,0,0,.746-1.889m-30.924,1.511c-1.153-.837-.358-2.122-.087-2.5a2.41,2.41,0,0,1,1.136-.919,1.34,1.34,0,0,1,1.263.225,1.972,1.972,0,0,1,.811,1.594v.1a2.789,2.789,0,0,0,.745,1.878,2.788,2.788,0,0,0-2.026-.126c-.015.005-.031.009-.046.015l-.021.006-.053.014a1.891,1.891,0,0,1-.264.061,2.015,2.015,0,0,1-.311.023,1.956,1.956,0,0,1-1.147-.373m4.263.178a2.372,2.372,0,0,1-.714-1.669v-.01h0v-.086h0a2.718,2.718,0,0,1,1.973-1.95h.071a2.377,2.377,0,0,1,1.671.713,2.229,2.229,0,0,1,.126,3.133,2.025,2.025,0,0,1-1.445.583,2.4,2.4,0,0,1-1.684-.713m22.387.127a2.225,2.225,0,0,1,.129-3.13,2.384,2.384,0,0,1,1.669-.714h.1a2.715,2.715,0,0,1,1.949,1.973v.037h0c0,.011,0,.022,0,.035a2.377,2.377,0,0,1-.714,1.67,2.415,2.415,0,0,1-1.328.682,2.3,2.3,0,0,1-.355.029,2.033,2.033,0,0,1-1.449-.584m-12.65.352-1.046-2.068a1.293,1.293,0,0,0-.892-.711l-.482-.082a2.63,2.63,0,0,0,.782-2.2,2.629,2.629,0,0,0,1.932,1.323l-.336.338a1.291,1.291,0,0,0-.312,1.094c0,.025.01.048.016.073l.343,2.221c0,.018.008.034.01.05l-.015-.036m6.03,0,.371-2.288a1.3,1.3,0,0,0-.3-1.1l-.342-.348.076-.01a2.641,2.641,0,0,0,1.851-1.312,2.633,2.633,0,0,0,.785,2.206l-.47.078a1.292,1.292,0,0,0-.9.7c-.01.021-.018.045-.029.066l-1.028,2c-.007.015-.012.031-.019.047,0-.014.006-.026.007-.039m-3.015-.476-.355-2.289a1.3,1.3,0,0,0-.629-.953l-.432-.226a2.641,2.641,0,0,0,1.424-1.853,2.627,2.627,0,0,0,1.428,1.856l-.424.219a1.29,1.29,0,0,0-.635.943.623.623,0,0,0-.008.073l-.359,2.22c0,.017,0,.034-.005.051,0-.013,0-.027,0-.04m-9.112-3.464a2.376,2.376,0,0,1-.164-1.809l0-.01h0l.027-.079s0,0,0,0a2.709,2.709,0,0,1,2.478-1.244l.07.02a2.383,2.383,0,0,1,1.367,1.195,2.229,2.229,0,0,1-.85,3.02,1.979,1.979,0,0,1-.895.213,2.333,2.333,0,0,1-2.039-1.3m15.912-3.151h0a2.72,2.72,0,0,1,2.464,1.275c0,.01.008.022.011.034h0l.011.033a2.377,2.377,0,0,1-.162,1.809,2.13,2.13,0,1,1-3.783-1.929,2.372,2.372,0,0,1,1.366-1.195l.01,0h0Zm2.89,1.193a.476.476,0,0,0-.016-.046l-.006-.022c0-.017-.008-.033-.014-.053a1.952,1.952,0,0,1,.29-1.722c.835-1.154,2.121-.358,2.495-.087a2.4,2.4,0,0,1,.919,1.138,1.338,1.338,0,0,1-.224,1.262,1.977,1.977,0,0,1-1.594.812h-.1a2.79,2.79,0,0,0-1.878.746,2.793,2.793,0,0,0,.127-2.026m-21.255,1.278a1.956,1.956,0,0,1-1.547-.809c-.839-1.151.313-2.128.688-2.4a2.415,2.415,0,0,1,1.364-.523,1.345,1.345,0,0,1,1.132.6,1.975,1.975,0,0,1,.28,1.768.037.037,0,0,1,0,.009l-.029.083a2.791,2.791,0,0,0,.13,2.016,2.793,2.793,0,0,0-1.889-.746h-.07l-.056,0m6.985-1.491a2.367,2.367,0,0,1,.4-1.771l.006-.008h0l.05-.067,0,0a2.708,2.708,0,0,1,2.741-.418c.017.013.039.026.059.043a2.372,2.372,0,0,1,.931,1.558,2.226,2.226,0,0,1-1.74,2.608,1.94,1.94,0,0,1-.3.025,2.26,2.26,0,0,1-2.149-1.968m5.989-2.277s0,0,0,0a2.716,2.716,0,0,1,2.738.45c.012.017.027.038.043.057a2.376,2.376,0,0,1,.4,1.771,2.13,2.13,0,1,1-4.194-.664,2.37,2.37,0,0,1,.93-1.558l.008-.007h0Zm3.116.239a.426.426,0,0,1-.029-.039l-.013-.017-.031-.047a1.953,1.953,0,0,1-.256-1.726c.439-1.356,1.908-1,2.347-.855a2.4,2.4,0,0,1,1.225.8,1.342,1.342,0,0,1,.177,1.27,1.971,1.971,0,0,1-1.265,1.264l-.01,0-.083.027a2.782,2.782,0,0,0-1.555,1.29,2.794,2.794,0,0,0-.506-1.968m-11.107.674-.048-.014-.02-.007-.053-.019a1.955,1.955,0,0,1-1.221-1.247c-.442-1.353.958-1.927,1.4-2.07a2.4,2.4,0,0,1,1.458-.074,1.338,1.338,0,0,1,.89.922,1.977,1.977,0,0,1-.279,1.768l-.007.008-.053.07a2.8,2.8,0,0,0-.5,1.959,2.8,2.8,0,0,0-1.565-1.294m5.5-1.215-.04-.029-.018-.014-.043-.034a1.956,1.956,0,0,1-.777-1.563c0-1.425,1.505-1.537,1.968-1.538a2.414,2.414,0,0,1,1.411.38,1.341,1.341,0,0,1,.561,1.153,1.971,1.971,0,0,1-.812,1.594l-.008.005-.072.052a2.778,2.778,0,0,0-1.08,1.706,2.791,2.791,0,0,0-1.089-1.712m1.089-3.6a3.806,3.806,0,0,0-.574.042l-.034.006a1.9,1.9,0,0,0-1.786,1.918,2.386,2.386,0,0,0,.389,1.307,3.811,3.811,0,0,0-.888.058,3.744,3.744,0,0,0-.854.217,2.4,2.4,0,0,0-.033-1.369,1.766,1.766,0,0,0-1.167-1.2,2.832,2.832,0,0,0-1.721.076c-1.405.458-2.045,1.458-1.671,2.609a2.389,2.389,0,0,0,.775,1.124,3.773,3.773,0,0,0-.827.329,3.7,3.7,0,0,0-.745.471,2.394,2.394,0,0,0-.453-1.294,1.771,1.771,0,0,0-1.48-.778,2.832,2.832,0,0,0-1.613.6c-1.195.87-1.5,2.019-.783,3a2.378,2.378,0,0,0,1.084.829,3.853,3.853,0,0,0-.684.57,3.7,3.7,0,0,0-.564.677,2.392,2.392,0,0,0-.832-1.089,1.764,1.764,0,0,0-1.646-.283A2.83,2.83,0,0,0,198.8,241.9c-.867,1.2-.8,2.382.183,3.091a2.373,2.373,0,0,0,1.287.453,3.93,3.93,0,0,0-.476.752,3.809,3.809,0,0,0-.326.819,2.4,2.4,0,0,0-1.128-.778,1.767,1.767,0,0,0-1.653.239,2.835,2.835,0,0,0-.951,1.437c-.455,1.407-.023,2.513,1.129,2.886a2.373,2.373,0,0,0,1.364.033,3.813,3.813,0,0,0-.219.863,3.723,3.723,0,0,0-.058.879,2.4,2.4,0,0,0-1.312-.392,1.768,1.768,0,0,0-1.5.739,2.825,2.825,0,0,0-.461,1.66c0,1.48.755,2.4,1.965,2.395a2.387,2.387,0,0,0,1.308-.389,4.8,4.8,0,0,0,.275,1.742,2.389,2.389,0,0,0-1.369.033,1.764,1.764,0,0,0-1.2,1.167,2.821,2.821,0,0,0,.076,1.72c.459,1.406,1.458,2.046,2.609,1.672a2.392,2.392,0,0,0,1.123-.776,4.846,4.846,0,0,0,.8,1.573,2.391,2.391,0,0,0-1.293.454,1.766,1.766,0,0,0-.778,1.479,2.844,2.844,0,0,0,.6,1.615c.871,1.194,2.02,1.494,3,.781a2.365,2.365,0,0,0,.829-1.084,3.819,3.819,0,0,0,.569.684,3.776,3.776,0,0,0,.678.565,2.385,2.385,0,0,0-1.089.831,1.764,1.764,0,0,0-.283,1.647,2.821,2.821,0,0,0,1.072,1.348c1.2.868,2.382.8,3.093-.182a2.371,2.371,0,0,0,.452-1.288,4.738,4.738,0,0,0,1.572.8,2.4,2.4,0,0,0-.778,1.127,1.764,1.764,0,0,0,.24,1.655,2.825,2.825,0,0,0,1.437.951c1.406.455,2.511.022,2.886-1.129a2.39,2.39,0,0,0,.032-1.364,3.835,3.835,0,0,0,.863.22,3.791,3.791,0,0,0,.879.058,2.392,2.392,0,0,0-.392,1.312,1.768,1.768,0,0,0,.739,1.5,2.82,2.82,0,0,0,1.654.461h.006c1.479,0,2.4-.755,2.395-1.965a2.375,2.375,0,0,0-.39-1.308,4.858,4.858,0,0,0,1.743-.275,2.388,2.388,0,0,0,.033,1.369,1.765,1.765,0,0,0,1.166,1.2,2.826,2.826,0,0,0,1.722-.074c1.406-.458,2.045-1.458,1.67-2.609a2.388,2.388,0,0,0-.775-1.124,4.825,4.825,0,0,0,1.573-.8,2.4,2.4,0,0,0,.455,1.293,1.764,1.764,0,0,0,1.479.779,2.833,2.833,0,0,0,1.613-.6c1.195-.87,1.495-2.02.782-3a2.367,2.367,0,0,0-1.083-.829,3.833,3.833,0,0,0,.683-.57,3.707,3.707,0,0,0,.564-.678,2.394,2.394,0,0,0,.832,1.089,1.768,1.768,0,0,0,1.646.283,2.827,2.827,0,0,0,1.35-1.073c.867-1.2.8-2.382-.183-3.092a2.374,2.374,0,0,0-1.287-.452,3.921,3.921,0,0,0,.475-.752,3.811,3.811,0,0,0,.327-.819,2.4,2.4,0,0,0,1.127.779,1.767,1.767,0,0,0,1.654-.241,2.835,2.835,0,0,0,.951-1.437c.456-1.406.024-2.512-1.129-2.885a2.383,2.383,0,0,0-1.364-.034,3.818,3.818,0,0,0,.22-.862,3.729,3.729,0,0,0,.057-.88,2.391,2.391,0,0,0,1.313.393,1.767,1.767,0,0,0,1.5-.74,2.818,2.818,0,0,0,.46-1.659A3.815,3.815,0,0,0,237.8,254l-.006-.034a1.9,1.9,0,0,0-1.918-1.787,2.368,2.368,0,0,0-1.307.391,3.859,3.859,0,0,0-.058-.888,3.692,3.692,0,0,0-.217-.855,2.392,2.392,0,0,0,1.37-.033,1.765,1.765,0,0,0,1.2-1.166,2.826,2.826,0,0,0-.075-1.722c-.458-1.406-1.459-2.045-2.609-1.671a2.39,2.39,0,0,0-1.124.776,3.758,3.758,0,0,0-.329-.827,3.819,3.819,0,0,0-.47-.746,2.391,2.391,0,0,0,1.293-.454,1.765,1.765,0,0,0,.777-1.479,2.821,2.821,0,0,0-.6-1.613c-.871-1.195-2.019-1.5-3-.782a2.392,2.392,0,0,0-.829,1.084,4.858,4.858,0,0,0-1.247-1.249,2.384,2.384,0,0,0,1.09-.832,1.765,1.765,0,0,0,.283-1.646,2.834,2.834,0,0,0-1.073-1.349c-1.2-.867-2.381-.8-3.091.182a2.372,2.372,0,0,0-.453,1.288,3.884,3.884,0,0,0-.754-.475,3.732,3.732,0,0,0-.818-.327,2.39,2.39,0,0,0,.778-1.127,1.768,1.768,0,0,0-.24-1.654,2.824,2.824,0,0,0-1.437-.951c-1.406-.455-2.512-.022-2.885,1.129a2.383,2.383,0,0,0-.033,1.364,4.763,4.763,0,0,0-1.743-.277,2.408,2.408,0,0,0,.393-1.314,1.767,1.767,0,0,0-.74-1.5,2.818,2.818,0,0,0-1.656-.46Z" transform="translate(-194.684 -233)" fill="#fac25a"/></clipPath></defs><g transform="translate(0 0)"><g clip-path="url(#a)"><rect width="49.372" height="49.372" transform="translate(-6.667 1.056) rotate(-8.998)" fill="#fac25a"/></g></g></svg>