<svg xmlns="http://www.w3.org/2000/svg" width="51.41" height="31.178" viewBox="0 0 51.41 31.178"><g transform="translate(0 -0.001)"><path d="M50.659,130.438H45.537v-7.354a3.263,3.263,0,0,0-2.419-3.152l-1.9-.509-.018-.006-30.054-8.052v-.936a.755.755,0,0,1,.558-.727l27.614-7.4a.752.752,0,0,1,.724.192.736.736,0,0,1,.224.536v14.106a.753.753,0,0,0,1.506,0V103.03a2.259,2.259,0,0,0-2.846-2.182L28.3,103.7v-.118a2.262,2.262,0,0,0-2.259-2.259H13.949a2.262,2.262,0,0,0-2.259,2.259v4.569l-.375.1a2.263,2.263,0,0,0-1.675,2.182v1.513h0a.746.746,0,0,0,.008.093v.03a.755.755,0,0,0,.548.6l32.531,8.717a1.758,1.758,0,0,1,1.3,1.7v7.354H29.471v-2.259a2.259,2.259,0,0,0-2.259-2.259H24.2a2.259,2.259,0,0,0-2.259,2.259v2.259H7.38V112.9a.747.747,0,0,1,.425-.678.753.753,0,1,0-.661-1.354h0a2.258,2.258,0,0,0-1.27,2.032v17.542H.753a.753.753,0,1,0,0,1.506h21.94a.754.754,0,0,0,.753-.753v-3.012a.756.756,0,0,1,.753-.753h3.012a.756.756,0,0,1,.753.753v3.012a.754.754,0,0,0,.753.753h21.94a.753.753,0,0,0,0-1.506ZM13.2,103.577a.754.754,0,0,1,.753-.753H26.041a.754.754,0,0,1,.753.753v.522l-13.6,3.643Z" transform="translate(0 -100.769)" fill="#fac25a"/></g></svg>