<svg xmlns="http://www.w3.org/2000/svg" width="33.739" height="28.206" viewBox="0 0 33.739 28.206"><g transform="translate(-19.437 -28.55)"><path d="M27.682,35.019v6.035H32.1q3.669,0,3.669-3a2.771,2.771,0,0,0-.908-2.209,3.791,3.791,0,0,0-2.643-.828ZM19.437,56.755V28.55h14a12.66,12.66,0,0,1,7.613,2.17,7.13,7.13,0,0,1,3.037,6.233,7.085,7.085,0,0,1-4.615,6.864v.118a6.063,6.063,0,0,1,3.945,4.655,18.057,18.057,0,0,1,.394,3.353q.079,1.972.2,3.116t.552,1.262v.434H36.439q-.355-.237-.473-1.262-.118-1.065-.237-2.682a16.827,16.827,0,0,0-.355-2.6,4.718,4.718,0,0,0-1.262-2.485,3.76,3.76,0,0,0-2.6-.789H27.682v9.822Z" fill="#231f20"/><circle cx="3.519" cy="3.519" r="3.519" transform="translate(46.138 49.718)" fill="#f5b335"/></g></svg>