<svg xmlns="http://www.w3.org/2000/svg" width="143.179" height="41.321" viewBox="0 0 143.179 41.321"><g transform="translate(-15.368 -13.829)"><g transform="translate(15.401 13.829)"><path d="M32.78,32.469q-.083-.8-.139-2.191a12.7,12.7,0,0,0-.277-2.358,4.263,4.263,0,0,0-2.774-3.273v-.083a4.982,4.982,0,0,0,3.245-4.826A5.014,5.014,0,0,0,30.7,15.354a8.9,8.9,0,0,0-5.354-1.525H15.5V33.662h5.8V26.755h2.691a2.643,2.643,0,0,1,1.831.555,3.315,3.315,0,0,1,.888,1.747,11.824,11.824,0,0,1,.25,1.831q.083,1.137.166,1.886.083.721.333.888h5.714v-.305Q32.864,33.274,32.78,32.469ZM24.4,22.622H21.3V18.378h3.19a2.665,2.665,0,0,1,1.858.583,1.949,1.949,0,0,1,.638,1.553Q26.983,22.622,24.4,22.622Z" transform="translate(-15.499 -13.829)" fill="#231f20"/><path d="M99.94,36.268a7.407,7.407,0,0,0-5.215-1.914,7.262,7.262,0,0,0-7.545,7.517,7.239,7.239,0,0,0,2.136,5.382,7.692,7.692,0,0,0,5.6,2.108,8.2,8.2,0,0,0,4.521-1.193,5.639,5.639,0,0,0,2.691-3.412H97.055a2.066,2.066,0,0,1-1.969,1.054q-2.274,0-2.774-2.635h10.1Q102.492,38.626,99.94,36.268ZM92.312,40.4q.444-2.524,2.524-2.524a2.016,2.016,0,0,1,1.554.666,3.261,3.261,0,0,1,.8,1.859Z" transform="translate(-68.969 -29.139)" fill="#231f20"/><path d="M161.759,34.463a5.293,5.293,0,0,0-4.411,2.108h-.083V34.907h-4.993V53.741h5.243V47.722h.083a4.821,4.821,0,0,0,3.939,1.8,5.56,5.56,0,0,0,4.521-2.053,8.412,8.412,0,0,0,1.692-5.52,8.6,8.6,0,0,0-1.609-5.326A5.171,5.171,0,0,0,161.759,34.463Zm.028,10.291a2.069,2.069,0,0,1-1.8.916,2.341,2.341,0,0,1-1.942-.971,4.124,4.124,0,0,1-.721-2.524,4.2,4.2,0,0,1,.721-2.524,2.321,2.321,0,0,1,1.942-1,2.052,2.052,0,0,1,1.8.944,4.546,4.546,0,0,1,.638,2.579A4.547,4.547,0,0,1,161.786,44.754Z" transform="translate(-117.523 -29.221)" fill="#231f20"/><path d="M223.852,34.573a7.612,7.612,0,0,0-5.631,2.136,7.237,7.237,0,0,0-2.136,5.381,7.237,7.237,0,0,0,2.136,5.381,7.668,7.668,0,0,0,5.631,2.108,7.573,7.573,0,0,0,5.6-2.108,7.288,7.288,0,0,0,2.108-5.381,7.287,7.287,0,0,0-2.108-5.381A7.519,7.519,0,0,0,223.852,34.573ZM225.6,45a2.033,2.033,0,0,1-3.578.028,6,6,0,0,1-.61-2.94,5.833,5.833,0,0,1,.61-2.913A1.933,1.933,0,0,1,223.8,38.1a1.954,1.954,0,0,1,1.8,1.082,5.717,5.717,0,0,1,.638,2.913A5.718,5.718,0,0,1,225.6,45Z" transform="translate(-165.124 -29.303)" fill="#231f20"/><path d="M287.214,37.451h-.083V35.315h-4.993V49.462h5.243v-5.8a4.133,4.133,0,0,1,1.276-3.412,4.405,4.405,0,0,1,3.606-.638h.111V35.149a2.015,2.015,0,0,0-.86-.139A4.845,4.845,0,0,0,287.214,37.451Z" transform="translate(-214.395 -29.629)" fill="#231f20"/><path d="M332.426,18.2h-5.132v4.577h-1.831v3.162h1.831v6.907a4.084,4.084,0,0,0,1.248,3.412,6.571,6.571,0,0,0,3.939.943,11.1,11.1,0,0,0,2.579-.333V33.008a12.719,12.719,0,0,1-1.415.028,1.332,1.332,0,0,1-.915-.361,1.434,1.434,0,0,1-.305-1V25.935h2.691V22.773h-2.691Z" transform="translate(-246.714 -17.087)" fill="#231f20"/><path d="M381.524,46.724V39.651a4.635,4.635,0,0,0-2.191-4.244,8.988,8.988,0,0,0-4.632-.943,7.439,7.439,0,0,0-4.91,1.442,4.824,4.824,0,0,0-1.8,3.662h4.965a1.708,1.708,0,0,1,1.858-1.692q1.5,0,1.5,1.359a1.081,1.081,0,0,1-.8,1,12.4,12.4,0,0,1-3,.583,8.135,8.135,0,0,0-3.745,1.248,3.483,3.483,0,0,0-1.387,3.107,3.891,3.891,0,0,0,1.3,3.134,5.083,5.083,0,0,0,3.412,1.109,4.923,4.923,0,0,0,4.272-1.914h.055a4.176,4.176,0,0,0,.472,1.553h5.159v-.222Q381.524,48.5,381.524,46.724Zm-5.076-2.8a2.274,2.274,0,0,1-.693,1.8,2.542,2.542,0,0,1-1.692.583,1.971,1.971,0,0,1-1.165-.333,1.349,1.349,0,0,1-.028-2.025,3.939,3.939,0,0,1,1.553-.61,9.608,9.608,0,0,0,2.025-.666Z" transform="translate(-277.978 -29.221)" fill="#231f20"/><path d="M438.458,36.461h-.083a4.466,4.466,0,0,0-4.022-2,5.025,5.025,0,0,0-4.161,2.08,8.064,8.064,0,0,0-1.609,5.132,6.74,6.74,0,0,0,1.72,4.937,5.845,5.845,0,0,0,4.3,1.747,4.558,4.558,0,0,0,3.578-1.609h.111v1.276q0,2.469-2.275,2.469a2.55,2.55,0,0,1-1.415-.361,1.573,1.573,0,0,1-.693-.832H428.86a4.8,4.8,0,0,0,2.275,3.5,9.267,9.267,0,0,0,4.965,1.193,7.932,7.932,0,0,0,5.271-1.553,6.256,6.256,0,0,0,2.08-5.076V34.908h-4.993Zm-.61,7.351a2.036,2.036,0,0,1-1.747.887,2.083,2.083,0,0,1-1.747-.887,3.911,3.911,0,0,1-.666-2.358,3.776,3.776,0,0,1,.638-2.3,2.108,2.108,0,0,1,1.775-.887,2.018,2.018,0,0,1,1.747.915,3.69,3.69,0,0,1,.666,2.275A3.911,3.911,0,0,1,437.848,43.812Z" transform="translate(-323.634 -29.221)" fill="#231f20"/><path d="M505,36.268a7.407,7.407,0,0,0-5.215-1.914,7.262,7.262,0,0,0-7.545,7.517,7.239,7.239,0,0,0,2.136,5.382,7.692,7.692,0,0,0,5.6,2.108,8.2,8.2,0,0,0,4.521-1.193,5.638,5.638,0,0,0,2.691-3.412h-5.076a2.066,2.066,0,0,1-1.969,1.054q-2.274,0-2.774-2.635h10.1Q507.549,38.626,505,36.268ZM497.369,40.4q.444-2.524,2.524-2.524a2.016,2.016,0,0,1,1.554.666,3.26,3.26,0,0,1,.8,1.859Z" transform="translate(-371.116 -29.139)" fill="#231f20"/></g><g transform="translate(15.368 39.238)"><path d="M24.962,115.027a5.322,5.322,0,0,0-3.672-1.188H15.368v12.87H19.13v-3.924h2.844a4.291,4.291,0,0,0,3.168-1.242,4.192,4.192,0,0,0,1.26-3.114A4.325,4.325,0,0,0,24.962,115.027Zm-2.718,4.428a1.424,1.424,0,0,1-1.08.414H19.13v-2.916h2a1.509,1.509,0,0,1,1.116.4,1.32,1.32,0,0,1,.414,1.026A1.461,1.461,0,0,1,22.244,119.455Z" transform="translate(-15.368 -113.839)" fill="#6f7271"/><path d="M65.21,129.168h-.054v-1.386h-3.24v9.18h3.4V133.2a2.681,2.681,0,0,1,.828-2.214,2.858,2.858,0,0,1,2.34-.414h.072v-2.9a1.311,1.311,0,0,0-.558-.09A3.144,3.144,0,0,0,65.21,129.168Z" transform="translate(-50.09 -124.092)" fill="#6f7271"/><path d="M94.457,127.3a4.939,4.939,0,0,0-3.654,1.386,5.091,5.091,0,0,0,0,6.984,4.976,4.976,0,0,0,3.654,1.368,4.915,4.915,0,0,0,3.636-1.368,5.14,5.14,0,0,0,0-6.984A4.879,4.879,0,0,0,94.457,127.3Zm1.134,6.768a1.319,1.319,0,0,1-2.322.018,3.893,3.893,0,0,1-.4-1.908,3.787,3.787,0,0,1,.4-1.89,1.254,1.254,0,0,1,1.152-.7,1.268,1.268,0,0,1,1.17.7,4.52,4.52,0,0,1,0,3.78Z" transform="translate(-70.604 -123.881)" fill="#6f7271"/><path d="M138.436,127.229a3.434,3.434,0,0,0-2.862,1.368h-.054v-1.08h-3.24v12.222h3.4v-3.906h.054a3.128,3.128,0,0,0,2.556,1.17,3.608,3.608,0,0,0,2.934-1.332,5.457,5.457,0,0,0,1.1-3.582,5.579,5.579,0,0,0-1.044-3.456A3.355,3.355,0,0,0,138.436,127.229Zm.018,6.678a1.343,1.343,0,0,1-1.17.594,1.52,1.52,0,0,1-1.26-.63,2.677,2.677,0,0,1-.468-1.638,2.726,2.726,0,0,1,.468-1.638,1.507,1.507,0,0,1,1.26-.648,1.332,1.332,0,0,1,1.17.612,3.59,3.59,0,0,1,0,3.348Z" transform="translate(-102.577 -123.827)" fill="#6f7271"/><path d="M181.968,128.4a4.809,4.809,0,0,0-3.384-1.242,4.939,4.939,0,0,0-3.51,8.37,4.993,4.993,0,0,0,3.636,1.368,5.321,5.321,0,0,0,2.934-.774,3.659,3.659,0,0,0,1.746-2.214H180.1a1.341,1.341,0,0,1-1.278.684q-1.476,0-1.8-1.71h6.552A5.652,5.652,0,0,0,181.968,128.4Zm-4.95,2.682q.288-1.638,1.638-1.638a1.307,1.307,0,0,1,1.008.432,2.117,2.117,0,0,1,.522,1.206Z" transform="translate(-133.465 -123.774)" fill="#6f7271"/><path d="M219.222,129.168h-.054v-1.386h-3.24v9.18h3.4V133.2a2.682,2.682,0,0,1,.828-2.214,2.858,2.858,0,0,1,2.34-.414h.072v-2.9a1.309,1.309,0,0,0-.558-.09A3.144,3.144,0,0,0,219.222,129.168Z" transform="translate(-164.973 -124.092)" fill="#6f7271"/><path d="M248.56,116.673h-3.33v2.97h-1.188V121.7h1.188v4.482a2.649,2.649,0,0,0,.81,2.214A4.263,4.263,0,0,0,248.6,129a7.2,7.2,0,0,0,1.674-.216v-2.5a8.156,8.156,0,0,1-.918.018.864.864,0,0,1-.594-.234.93.93,0,0,1-.2-.648V121.7h1.746v-2.052H248.56Z" transform="translate(-185.945 -115.953)" fill="#6f7271"/><rect width="3.402" height="9.18" transform="translate(65.245 3.69)" fill="#6f7271"/><rect width="3.402" height="2.574" transform="translate(65.245)" fill="#6f7271"/><path d="M297.166,128.4a4.808,4.808,0,0,0-3.384-1.242,4.939,4.939,0,0,0-3.51,8.37,4.993,4.993,0,0,0,3.636,1.368,5.321,5.321,0,0,0,2.934-.774,3.659,3.659,0,0,0,1.746-2.214h-3.294a1.341,1.341,0,0,1-1.278.684q-1.476,0-1.8-1.71h6.552A5.652,5.652,0,0,0,297.166,128.4Zm-4.95,2.682q.288-1.638,1.638-1.638a1.308,1.308,0,0,1,1.008.432,2.117,2.117,0,0,1,.522,1.206Z" transform="translate(-219.396 -123.774)" fill="#6f7271"/><path d="M337.892,132.575a2.543,2.543,0,0,0-.594-.864,2.477,2.477,0,0,0-.918-.54,4.991,4.991,0,0,0-.99-.306q-.4-.09-1.044-.18a9.921,9.921,0,0,1-1.458-.288q-.432-.144-.432-.486a.53.53,0,0,1,.27-.486,1.3,1.3,0,0,1,.7-.18q1.044,0,1.152.828h3.2a2.6,2.6,0,0,0-1.206-2.106,5.673,5.673,0,0,0-3.168-.738,5.3,5.3,0,0,0-2.97.792,2.418,2.418,0,0,0-1.206,2.142,3.19,3.19,0,0,0,.2,1.17,2.755,2.755,0,0,0,.5.81,2.81,2.81,0,0,0,.792.5,6.71,6.71,0,0,0,.882.288q.4.09.954.18c.06.012.156.024.288.036a6.741,6.741,0,0,1,1.476.342.654.654,0,0,1,.486.648q0,.792-1.17.792a1.2,1.2,0,0,1-1.386-1.206H329a2.806,2.806,0,0,0,1.278,2.412,5.82,5.82,0,0,0,3.348.864,5.98,5.98,0,0,0,3.258-.792,2.6,2.6,0,0,0,1.26-2.358A3,3,0,0,0,337.892,132.575Z" transform="translate(-249.318 -123.827)" fill="#6f7271"/></g><path d="M560.526,71.8a3.134,3.134,0,1,1-3.134-3.134,3.134,3.134,0,0,1,3.134,3.134" transform="translate(-401.978 -40.901)" fill="#f5b335"/></g></svg>