<svg xmlns="http://www.w3.org/2000/svg" width="21.504" height="25.923" viewBox="0 0 21.504 25.923"><path d="M49.639,36.887H47.628a.5.5,0,1,0,0,1.006h2.011a.5.5,0,1,0,0-1.006Z" transform="translate(-32.328 -25.693)" fill="#fac25a"/><path d="M49.639,31.572H47.628a.5.5,0,1,0,0,1.006h2.011a.5.5,0,1,0,0-1.006Z" transform="translate(-32.328 -23.395)" fill="#fac25a"/><path d="M49.639,42.2H47.628a.5.5,0,1,0,0,1.006h2.011a.5.5,0,1,0,0-1.006Z" transform="translate(-32.328 -27.991)" fill="#fac25a"/><path d="M49.639,47.517H47.628a.5.5,0,1,0,0,1.006h2.011a.5.5,0,1,0,0-1.006Z" transform="translate(-32.328 -30.288)" fill="#fac25a"/><path d="M41.214,52.832H28.14a.5.5,0,0,0,0,1.006H41.214a.5.5,0,0,0,0-1.006Z" transform="translate(-23.903 -32.586)" fill="#fac25a"/><path d="M29.109,40.157c.005,0,.011.006.016.011a5.035,5.035,0,1,0-.027-.027C29.1,40.146,29.1,40.153,29.109,40.157Zm7.58-3.557A4.017,4.017,0,0,1,30.2,39.775l2.819-2.818a.507.507,0,0,0,.147-.357V32.613A4.027,4.027,0,0,1,36.689,36.6Zm-4.526-3.988v3.78l-2.671,2.671a4.013,4.013,0,0,1,2.671-6.451Z" transform="translate(-23.903 -23.395)" fill="#fac25a"/><path d="M41.154,17.168H22.47a1.412,1.412,0,0,0-1.41,1.411v23.1a1.412,1.412,0,0,0,1.41,1.411H41.154a1.412,1.412,0,0,0,1.41-1.411v-23.1A1.412,1.412,0,0,0,41.154,17.168Zm.275,24.512a.276.276,0,0,1-.275.276H22.47a.276.276,0,0,1-.275-.276v-23.1a.275.275,0,0,1,.275-.275H41.154a.275.275,0,0,1,.275.275Z" transform="translate(-21.06 -17.168)" fill="#fac25a"/></svg>