<svg xmlns="http://www.w3.org/2000/svg" xmlns:xlink="http://www.w3.org/1999/xlink" width="23.185" height="23.565" viewBox="0 0 23.185 23.565"><defs><clipPath id="a"><rect width="23.185" height="23.565" fill="none"/></clipPath></defs><g clip-path="url(#a)"><path d="M22.527,27.592l6.092,2.1a.509.509,0,0,0,.332-.963l-6.092-2.1a.509.509,0,0,0-.332.963Z" transform="translate(-19.663 -21.64)" fill="#fac25a"/><path d="M22.476,37.382l6.092,2.1a.514.514,0,0,0,.166.027.509.509,0,0,0,.166-.99l-6.092-2.1a.509.509,0,0,0-.332.963Z" transform="translate(-19.638 -26.446)" fill="#fac25a"/><path d="M27.284,47.087l-4.48-1.5a.509.509,0,0,0-.323.965l4.48,1.5a.509.509,0,0,0,.323-.966Z" transform="translate(-19.638 -30.949)" fill="#fac25a"/><path d="M40.214,17.071a.512.512,0,0,0-.446-.083L29,20.049c-.014-.005-.025-.014-.04-.018L17.881,16.878a.51.51,0,0,0-.649.49V36.653a.509.509,0,0,0,.37.49l10.836,3.081a.516.516,0,0,0,.079.1.509.509,0,0,0,.307.1.5.5,0,0,0,.139-.019l11.083-3.152a.509.509,0,0,0,.37-.49V17.477A.509.509,0,0,0,40.214,17.071Zm-11.9,22.06L18.25,36.269V18.042L28.315,20.9ZM39.4,36.378,29.333,39.24V21.013L39.4,18.151Z" transform="translate(-17.232 -16.859)" fill="#fac25a"/><path d="M44.091,33.666a.51.51,0,0,0,.294.094.5.5,0,0,0,.166-.028l6.092-2.1a.508.508,0,0,0,.343-.485l-.026-3.825a.509.509,0,0,0-.675-.478l-6.092,2.1a.508.508,0,0,0-.343.485l.026,3.825A.508.508,0,0,0,44.091,33.666Zm5.856-5.629.018,2.75-5.076,1.75-.019-2.75Z" transform="translate(-30.298 -21.746)" fill="#fac25a"/><path d="M50.336,41.791l-6.092,2.1a.509.509,0,0,0,.332.963l6.092-2.1a.509.509,0,1,0-.332-.963Z" transform="translate(-30.322 -29.083)" fill="#fac25a"/></g></svg>