<svg xmlns="http://www.w3.org/2000/svg" width="20.327" height="24.503" viewBox="0 0 20.327 24.503"><path d="M40.052,17.168H22.393A1.335,1.335,0,0,0,21.059,18.5V40.337a1.335,1.335,0,0,0,1.334,1.333H40.052a1.335,1.335,0,0,0,1.334-1.333V18.5A1.335,1.335,0,0,0,40.052,17.168Zm.261,23.169a.261.261,0,0,1-.261.26H22.393a.261.261,0,0,1-.261-.26V18.5a.261.261,0,0,1,.261-.26H40.052a.261.261,0,0,1,.261.26Z" transform="translate(-21.059 -17.168)" fill="#fac25a"/><path d="M31.559,31.457l.833-.721v2.6a.536.536,0,0,0,.537.537h5.5a.536.536,0,0,0,.537-.537v-2.6l.833.721a.537.537,0,1,0,.7-.811l-4.469-3.87a.535.535,0,0,0-.7,0l-4.469,3.87a.537.537,0,1,0,.7.811Zm4.118-3.565,2.212,1.915V32.8H33.465V29.807Z" transform="translate(-25.513 -21.56)" fill="#fac25a"/><path d="M40.233,46.574H30.024a.537.537,0,1,0,0,1.073H40.233a.537.537,0,1,0,0-1.073Z" transform="translate(-24.965 -30.795)" fill="#fac25a"/><path d="M40.233,52.1H30.024a.537.537,0,1,0,0,1.073H40.233a.537.537,0,1,0,0-1.073Z" transform="translate(-24.965 -33.355)" fill="#fac25a"/></svg>