<svg xmlns="http://www.w3.org/2000/svg" width="24.865" height="22.299" viewBox="0 0 24.865 22.299"><g transform="translate(0)"><path d="M-123.8,20.656l-6.854-2.062a1.106,1.106,0,0,0-.865.1,1.109,1.109,0,0,0-.866-.1h0l-6.854,2.063a1.062,1.062,0,0,0-.222.106,1.082,1.082,0,0,0-.222-.106l-6.854-2.062a1.107,1.107,0,0,0-.977.167.987.987,0,0,0-.409.8V37.772a1.016,1.016,0,0,0,.742.965l6.854,2.062h0a1.109,1.109,0,0,0,.321.047,1.1,1.1,0,0,0,.544-.157,1.1,1.1,0,0,0,.544.157,1.115,1.115,0,0,0,.322-.047l6.854-2.063a1.091,1.091,0,0,0,.222-.106,1.083,1.083,0,0,0,.222.107l6.854,2.062h0a1.109,1.109,0,0,0,.321.047,1.1,1.1,0,0,0,.656-.215.986.986,0,0,0,.408-.8V21.621A1.014,1.014,0,0,0-123.8,20.656ZM-140.026,39.8l-6.856-2.032-.012-18.175a.058.058,0,0,1,.059-.007l6.856,2.032V39.8A.064.064,0,0,1-140.026,39.8Zm1.132,0c-.022.007-.041,0-.046.011l0-18.163,6.854-2.063h0c.022-.007.041,0,.046-.011l0,18.163Zm14.751,0L-131,37.772V19.59a.062.062,0,0,1,.046,0l6.856,2.032.012,18.175A.071.071,0,0,1-124.143,39.8Z" transform="translate(147.921 -18.547)" fill="#fac25a"/><path d="M-139.921,29.04l-3.885-1.169a.521.521,0,0,0-.648.348.52.52,0,0,0,.348.648l3.885,1.169a.536.536,0,0,0,.15.022.521.521,0,0,0,.5-.37A.52.52,0,0,0-139.921,29.04Z" transform="translate(146.266 -23.014)" fill="#fac25a"/><path d="M-139.921,37.859l-3.885-1.169a.522.522,0,0,0-.648.348.52.52,0,0,0,.348.648l3.885,1.169a.536.536,0,0,0,.15.022.52.52,0,0,0,.5-.37A.52.52,0,0,0-139.921,37.859Z" transform="translate(146.266 -27.25)" fill="#fac25a"/><path d="M-139.921,46.677l-3.885-1.169a.522.522,0,0,0-.648.348.52.52,0,0,0,.348.648l3.885,1.169a.517.517,0,0,0,.15.022.52.52,0,0,0,.5-.37A.521.521,0,0,0-139.921,46.677Z" transform="translate(146.266 -31.486)" fill="#fac25a"/><path d="M-108.9,29.383l-3.885-1.169a.522.522,0,0,0-.648.348.52.52,0,0,0,.348.648l3.885,1.169a.518.518,0,0,0,.15.022.521.521,0,0,0,.5-.37A.521.521,0,0,0-108.9,29.383Z" transform="translate(131.369 -23.179)" fill="#fac25a"/><path d="M-108.9,38.2l-3.885-1.169a.521.521,0,0,0-.648.348.52.52,0,0,0,.348.648L-109.2,39.2a.536.536,0,0,0,.15.022.52.52,0,0,0,.5-.37A.52.52,0,0,0-108.9,38.2Z" transform="translate(131.369 -27.415)" fill="#fac25a"/><path d="M-108.9,47.021l-3.885-1.169a.522.522,0,0,0-.648.348.52.52,0,0,0,.348.648l3.885,1.169a.517.517,0,0,0,.15.022.52.52,0,0,0,.5-.37A.52.52,0,0,0-108.9,47.021Z" transform="translate(131.369 -31.651)" fill="#fac25a"/></g></svg>