<svg xmlns="http://www.w3.org/2000/svg" width="63.36" height="58.079" viewBox="0 0 44.381 50.957">
  <g transform="translate(-0.004 -0.001)">
	<path d="M100.316,46.035a4.106,4.106,0,0,0-2.668,3.835,4.061,4.061,0,0,0,.471,1.87,3.273,3.273,0,0,0,0,6.123,4.06,4.06,0,0,0-.471,1.87,4.105,4.105,0,0,0,2.668,3.835,3.242,3.242,0,0,0-.2,1.1,3.265,3.265,0,0,0,4.446,3.066,3.279,3.279,0,0,0,6.238-1.423V43.3a3.279,3.279,0,0,0-6.238-1.423,3.257,3.257,0,0,0-4.244,4.163ZM103.4,43.3a1.645,1.645,0,0,1,1.644,1.644h1.644a3.256,3.256,0,0,0-.758-2.074,1.64,1.64,0,0,1,3.223.43V66.308a1.64,1.64,0,0,1-3.223.43,3.255,3.255,0,0,0,.758-2.074h-1.644A1.644,1.644,0,1,1,103.4,63.02V61.377a3.256,3.256,0,0,0-2.1.776,2.464,2.464,0,1,1,2.917-2.42h1.644a4.114,4.114,0,0,0-4.109-4.109,4.066,4.066,0,0,0-2.466.844v-.022a1.644,1.644,0,0,1,0-3.287v-.021a4.065,4.065,0,0,0,2.466.843,4.114,4.114,0,0,0,4.109-4.109h-1.644a2.466,2.466,0,1,1-2.917-2.419,3.256,3.256,0,0,0,2.1.776V46.583a1.644,1.644,0,1,1,0-3.287Zm0,0" transform="translate(-86.138 -35.897)" fill="#fac25a"></path>
	<path d="M263.4,41.652a3.27,3.27,0,0,0-1.159.221A3.28,3.28,0,0,0,256,43.3V66.308a3.28,3.28,0,0,0,6.238,1.423,3.265,3.265,0,0,0,4.446-3.066,3.232,3.232,0,0,0-.2-1.1,4.105,4.105,0,0,0,2.668-3.835,4.06,4.06,0,0,0-.471-1.87,3.273,3.273,0,0,0,0-6.123,4.06,4.06,0,0,0,.471-1.87,4.106,4.106,0,0,0-2.668-3.835,3.231,3.231,0,0,0,.2-1.1,3.291,3.291,0,0,0-3.287-3.287Zm4.109,8.219a2.466,2.466,0,1,1-4.931,0h-1.644a4.114,4.114,0,0,0,4.109,4.109,4.065,4.065,0,0,0,2.466-.843v.021a1.644,1.644,0,1,1,0,3.287v.022a4.066,4.066,0,0,0-2.466-.844,4.114,4.114,0,0,0-4.109,4.109h1.644a2.466,2.466,0,1,1,2.918,2.42,3.258,3.258,0,0,0-2.1-.776V63.02a1.644,1.644,0,1,1-1.644,1.644h-1.644a3.255,3.255,0,0,0,.758,2.074,1.64,1.64,0,0,1-3.223-.43V43.3a1.64,1.64,0,0,1,3.223-.43,3.256,3.256,0,0,0-.758,2.074h1.644a1.644,1.644,0,1,1,1.644,1.644v1.644a3.258,3.258,0,0,0,2.1-.776,2.466,2.466,0,0,1,2.013,2.419Zm0,0" transform="translate(-229.7 -35.897)" fill="#fac25a"></path>
	<path d="M95.853,5.127A18.746,18.746,0,0,0,81.7.04l.1,1.64a17.258,17.258,0,0,1,10.63,31.614,10.16,10.16,0,0,0-3.714,4.513H77.066a10.327,10.327,0,0,0-3.732-4.548,17.182,17.182,0,0,1-7.673-14.906L64.018,18.3a18.814,18.814,0,0,0,8.4,16.323,8.66,8.66,0,0,1,2.843,3.182H73.049v1.644H75.92a9.484,9.484,0,0,1,.352,1.644H74.693v1.644h1.644V45.2a.822.822,0,0,0,.822.822h.822a4.931,4.931,0,1,0,9.862,0h.822a.821.821,0,0,0,.822-.822V42.739H91.13V41.1H89.544a9.161,9.161,0,0,1,.33-1.644h2.9V37.808H90.523a8.475,8.475,0,0,1,2.822-3.143A18.9,18.9,0,0,0,95.853,5.127ZM82.911,49.314a3.291,3.291,0,0,1-3.287-3.287H86.2A3.291,3.291,0,0,1,82.911,49.314Zm4.931-4.931H77.98V42.739h9.862ZM87.9,41.1H77.914a11.192,11.192,0,0,0-.279-1.644H88.157A10.92,10.92,0,0,0,87.9,41.1Zm0,0" transform="translate(-57.429 0)" fill="#fac25a"></path>
	<path d="M48.826,5.761a3.291,3.291,0,0,1,3.287,3.287.822.822,0,0,0,1.644,0,3.291,3.291,0,0,1,3.287-3.287.822.822,0,0,0,0-1.644A3.291,3.291,0,0,1,53.757.83a.822.822,0,0,0-1.644,0,3.291,3.291,0,0,1-3.287,3.287.822.822,0,0,0,0,1.644Zm4.109-2.208a4.974,4.974,0,0,0,1.387,1.387,4.979,4.979,0,0,0-1.387,1.387,4.974,4.974,0,0,0-1.387-1.387A4.969,4.969,0,0,0,52.935,3.553Zm0,0" transform="translate(-43.069 -0.006)" fill="#fac25a"></path>
	<path d="M9.045,85.761a.822.822,0,1,0,0-1.644A3.291,3.291,0,0,1,5.757,80.83a.822.822,0,1,0-1.644,0A3.291,3.291,0,0,1,.826,84.117a.822.822,0,1,0,0,1.644,3.291,3.291,0,0,1,3.287,3.287.822.822,0,1,0,1.644,0A3.291,3.291,0,0,1,9.045,85.761Zm-4.109.565a4.974,4.974,0,0,0-1.387-1.387,4.979,4.979,0,0,0,1.387-1.387,4.985,4.985,0,0,0,1.387,1.387A4.979,4.979,0,0,0,4.935,86.326Zm0,0" transform="translate(0 -71.787)" fill="#fac25a"></path>
  </g>
</svg>