<svg xmlns="http://www.w3.org/2000/svg" width="38.141" height="38.157" viewBox="0 0 38.141 38.157"><g transform="translate(-0.015 -0.001)"><g transform="translate(22.449 13.225)"><path d="M302.474,177.678a.745.745,0,1,0,.218.527.745.745,0,0,0-.218-.527Z" transform="translate(-301.203 -177.461)" fill="#fac25a"/></g><g transform="translate(0.015 0.001)"><path d="M37.938,10.833a.746.746,0,0,0-1.054,0L34.868,12.85a8.671,8.671,0,0,0-1.962-3l-3.26-3.26a8.658,8.658,0,0,0-2.288-1.644l3.667-3.667A.747.747,0,1,0,29.972.219L25.83,4.361A8.7,8.7,0,0,0,17.549,6.4a6.7,6.7,0,0,0-4.221-1.483,6.8,6.8,0,0,0-1.653.2l-4.9-4.9A.746.746,0,0,0,5.725,1.272L10.153,5.7a6.775,6.775,0,0,0-1.6,1.188l-6.007,6c-.1.1-.2.211-.3.319l-.978-.978A.746.746,0,0,0,.221,13.3l1.163,1.163a6.764,6.764,0,0,0,1.164,7.986L3.8,23.7a3.023,3.023,0,0,0,2.715,4.353,1.773,1.773,0,0,0,.208-.008,3.015,3.015,0,0,0,3.015,3.227,1.746,1.746,0,0,0,.206-.008c0,.068-.008.138-.008.208a3.02,3.02,0,0,0,3.02,3.022,1.744,1.744,0,0,0,.206-.008c0,.068-.008.138-.008.208a3.022,3.022,0,0,0,5.161,2.141l.495-.495.933.933a3.022,3.022,0,0,0,5.16-2.137c0-.055,0-.112,0-.163.055,0,.11,0,.163,0A3.015,3.015,0,0,0,28.08,31.75c.068,0,.138.008.208.008a3.022,3.022,0,0,0,3.022-3.022,1.738,1.738,0,0,0-.008-.206c.068,0,.137.008.206.008a3.022,3.022,0,0,0,2.138-5.16L32.6,22.325a.742.742,0,0,0,.3-.183,8.638,8.638,0,0,0,2.549-6.147,8.8,8.8,0,0,0-.127-1.494l2.614-2.614a.746.746,0,0,0,0-1.054ZM6.518,26.566a1.522,1.522,0,0,1-1.084-.449h0a1.532,1.532,0,0,1,0-2.167l1.275-1.275a1.533,1.533,0,1,1,2.168,2.167L7.6,26.114a1.522,1.522,0,0,1-1.084.452Zm2.137,2.771a1.534,1.534,0,0,1,0-2.167L9.93,25.9A1.532,1.532,0,0,1,12.1,28.062l-1.275,1.275a1.534,1.534,0,0,1-2.167,0Zm3.221,3.221a1.532,1.532,0,0,1,0-2.167l1.275-1.275a1.532,1.532,0,0,1,2.167,2.167l-1.275,1.272a1.534,1.534,0,0,1-2.167,0ZM18.54,34.5l-1.275,1.27A1.532,1.532,0,1,1,15.1,33.608l1.275-1.275A1.532,1.532,0,1,1,18.539,34.5ZM31.852,21.087a.742.742,0,0,0-.183.3l-5.737-5.737a.746.746,0,1,0-1.054,1.053l7.716,7.716a1.532,1.532,0,0,1-2.167,2.167l-5.611-5.611a.746.746,0,1,0-1.054,1.054l2.107,2.107h0l3.5,3.5a1.532,1.532,0,0,1-2.167,2.167L21.593,24.2a.746.746,0,1,0-1.054,1.05l2.107,2.107,3.5,3.5a1.532,1.532,0,0,1-1.911,2.373,3.081,3.081,0,0,0-.218-.244l-1.643-1.643a.742.742,0,0,0-.234-.157l-3.772-3.772a.746.746,0,1,0-1.054,1.054l5.611,5.611a3.043,3.043,0,0,0,.244.218A1.532,1.532,0,0,1,20.8,36.215l-.951-.951a3.02,3.02,0,0,0-2.6-4.858c0-.068.008-.138.008-.208a3.022,3.022,0,0,0-3.022-3.022,1.737,1.737,0,0,0-.206.008c0-.068.008-.137.008-.206a3.022,3.022,0,0,0-3.022-3.022,1.771,1.771,0,0,0-.208.008A3.021,3.021,0,0,0,5.657,21.62l-.913.913L3.6,21.392a5.267,5.267,0,0,1,0-7.439L9.611,7.945a5.268,5.268,0,0,1,6.875-.489L12.911,11.03a3.39,3.39,0,1,0,4.794,4.794l3.641-3.641a.746.746,0,0,0-1.052-1.056l-3.641,3.641a1.9,1.9,0,1,1-2.689-2.689L18.1,7.94h0l.3-.3a7.21,7.21,0,0,1,10.186,0l3.26,3.26a7.2,7.2,0,0,1,0,10.186Z" transform="translate(-0.015 -0.001)" fill="#fac25a"/></g></g></svg>