<svg xmlns="http://www.w3.org/2000/svg" width="63.36" height="58.079" viewBox="0 0 41.159 41.159">
  <g transform="translate(0)">
	<g transform="translate(11.159 28.475)">
	  <path d="M139.845,353.726l-.022-.022a.763.763,0,1,0-1.077,1.082l.025.025a.763.763,0,1,0,1.075-1.085Z" transform="translate(-138.521 -353.481)" fill="#fac25a"></path>
	</g>
	<g transform="translate(8.212 8.218)">
	  <path d="M115.129,97.693a12.37,12.37,0,0,0-19.47,14.913.763.763,0,1,0,1.323-.762,10.842,10.842,0,1,1,3.942,3.964.764.764,0,0,0-.77,1.319,12.37,12.37,0,0,0,14.975-19.434Z" transform="translate(-94.016 -94.076)" fill="#fac25a"></path>
	</g>
	<g transform="translate(0)">
	  <path d="M41.156,17.047a.8.8,0,0,0-.678-.794l-2.967-.47-1.574-3.8L37.7,9.555a.8.8,0,0,0-.082-1.041L32.632,3.532a.8.8,0,0,0-1.041-.082l-2.43,1.765-3.8-1.572L24.89.677A.8.8,0,0,0,24.1,0h0L17.047,0a.8.8,0,0,0-.794.678l-.47,2.967-3.8,1.574L9.555,3.459a.8.8,0,0,0-1.041.082L3.532,8.527A.8.8,0,0,0,3.45,9.568L5.215,12,3.643,15.8l-2.966.472A.8.8,0,0,0,0,17.063l0,7.049a.8.8,0,0,0,.678.794l2.967.47,1.574,3.8L3.459,31.6a.8.8,0,0,0,.082,1.041l4.986,4.982a.8.8,0,0,0,1.041.082L12,35.944l3.8,1.572.472,2.966a.8.8,0,0,0,.794.678h0l7.049,0a.8.8,0,0,0,.794-.678l.47-2.967,3.8-1.574L31.6,37.7a.8.8,0,0,0,1.041-.082l4.982-4.986a.8.8,0,0,0,.082-1.041l-1.765-2.43,1.572-3.8,2.966-.472a.8.8,0,0,0,.678-.794Zm-4.338,6.8a.8.8,0,0,0-.616.487l-1.916,4.631a.8.8,0,0,0,.092.78L36,31.981,31.993,36l-2.241-1.625a.8.8,0,0,0-.78-.092L24.344,36.2a.8.8,0,0,0-.486.617l-.433,2.734-5.676,0-.435-2.732a.8.8,0,0,0-.487-.616L12.2,34.286a.8.8,0,0,0-.78.092L9.178,36,5.163,31.993l1.625-2.241a.8.8,0,0,0,.092-.78L4.961,24.344a.8.8,0,0,0-.617-.486l-2.734-.433,0-5.676,2.732-.435a.8.8,0,0,0,.616-.487L6.873,12.2a.8.8,0,0,0-.092-.78L5.154,9.178,9.167,5.163l2.241,1.625a.8.8,0,0,0,.78.092l4.628-1.919a.8.8,0,0,0,.486-.617l.433-2.734,5.676,0,.435,2.732a.8.8,0,0,0,.487.616l4.631,1.916a.8.8,0,0,0,.78-.092l2.239-1.626L36,9.167l-1.625,2.241a.8.8,0,0,0-.092.78L36.2,16.815a.8.8,0,0,0,.617.486l2.734.433,0,5.676Z" transform="translate(0)" fill="#fac25a"></path>
	</g>
	<g transform="translate(12.232 12.231)">
	  <path d="M161.972,155.946a4.228,4.228,0,0,0-3.5-1.047l-3.353-3.353a4.248,4.248,0,0,0-5.779-4.594.763.763,0,0,0-.256,1.249l1.107,1.107a.6.6,0,0,1-.85.85l-1.111-1.111a.763.763,0,0,0-1.248.253,4.245,4.245,0,0,0,4.592,5.791l3.35,3.35a4.247,4.247,0,0,0,5.791,4.593.763.763,0,0,0,.254-1.248l-1.1-1.1a.6.6,0,0,1,.85-.85l1.1,1.1a.763.763,0,0,0,1.248-.256A4.271,4.271,0,0,0,161.972,155.946Zm-.18,2.808a2.128,2.128,0,1,0-3.009,3.009l.037.037a2.723,2.723,0,0,1-2.331-3.412.763.763,0,0,0-.2-.737l-3.933-3.933a.764.764,0,0,0-.736-.2,2.713,2.713,0,0,1-3.41-2.328l.044.044a2.128,2.128,0,0,0,3.009-3.009l-.036-.036a2.723,2.723,0,0,1,2.316,3.407.763.763,0,0,0,.2.736l3.935,3.935a.763.763,0,0,0,.735.2,2.712,2.712,0,0,1,3.405,2.312Z" transform="translate(-146.67 -146.646)" fill="#fac25a"></path>
	</g>
	<g transform="translate(21.855 11.541)">
	  <path d="M275.31,145.845a8.874,8.874,0,0,0-5.023-3.184.763.763,0,1,0-.335,1.49,7.342,7.342,0,0,1,4.156,2.635.763.763,0,1,0,1.2-.941Z" transform="translate(-269.356 -142.643)" fill="#fac25a"></path>
	</g>
	<g transform="translate(27.935 17.18)">
	  <path d="M348.284,213.832l-.011-.035a.763.763,0,0,0-1.453.469l.01.03a.763.763,0,1,0,1.454-.465Z" transform="translate(-346.783 -213.268)" fill="#fac25a"></path>
	</g>
  </g>
</svg>